<?xml version="1.0" encoding="UTF-8" standalone="no"?>
<!-- Created with Inkscape (http://www.inkscape.org/) -->

<svg
   xmlns:dc="http://purl.org/dc/elements/1.1/"
   xmlns:cc="http://creativecommons.org/ns#"
   xmlns:rdf="http://www.w3.org/1999/02/22-rdf-syntax-ns#"
   xmlns:svg="http://www.w3.org/2000/svg"
   xmlns="http://www.w3.org/2000/svg"
   xmlns:sodipodi="http://sodipodi.sourceforge.net/DTD/sodipodi-0.dtd"
   xmlns:inkscape="http://www.inkscape.org/namespaces/inkscape"
   width="763.36786"
   height="148.85112"
   id="svg2"
   sodipodi:version="0.32"
   inkscape:version="0.48.3.1 r9886"
   sodipodi:docname="11 dokumentu berria"
   inkscape:output_extension="org.inkscape.output.svg.inkscape"
   version="1.1">
  <defs
     id="defs4" />
  <sodipodi:namedview
     id="base"
     pagecolor="#ffffff"
     bordercolor="#666666"
     borderopacity="1.0"
     inkscape:pageopacity="0.0"
     inkscape:pageshadow="2"
     inkscape:zoom="0.98994949"
     inkscape:cx="347.60122"
     inkscape:cy="113.62101"
     inkscape:document-units="px"
     inkscape:current-layer="layer1"
     inkscape:window-width="1278"
     inkscape:window-height="779"
     inkscape:window-x="0"
     inkscape:window-y="19"
     showgrid="false"
     fit-margin-top="0"
     fit-margin-left="0"
     fit-margin-right="0"
     fit-margin-bottom="0"
     inkscape:window-maximized="0" />
  <metadata
     id="metadata7">
    <rdf:RDF>
      <cc:Work
         rdf:about="">
        <dc:format>image/svg+xml</dc:format>
        <dc:type
           rdf:resource="http://purl.org/dc/dcmitype/StillImage" />
        <dc:title></dc:title>
      </cc:Work>
    </rdf:RDF>
  </metadata>
  <g
     inkscape:label="Capa 1"
     inkscape:groupmode="layer"
     id="layer1"
     transform="translate(-2.398777,-630.4722)">
    <g
       id="g4514"
       transform="translate(-20.203051,-11.111678)">
      <path
         d="m 102.52668,656.87378 0,-5.97592 19.14251,0 0,5.97592 -19.14251,0"
         id="path3989-8"
         inkscape:connector-curvature="0"
         style="font-size:9.99791336px;font-style:normal;font-variant:normal;font-weight:bold;font-stretch:normal;text-align:start;line-height:125%;letter-spacing:0px;word-spacing:0px;writing-mode:lr-tb;text-anchor:start;fill:#1a1a1a;fill-opacity:1;stroke:none;font-family:News Cycle;-inkscape-font-specification:News Cycle Bold" />
      <path
         d="m 140.81185,656.87378 0,-5.97592 19.14266,0 0,5.97592 -19.14266,0"
         id="path3991-3"
         inkscape:connector-curvature="0"
         style="font-size:9.99791336px;font-style:normal;font-variant:normal;font-weight:bold;font-stretch:normal;text-align:start;line-height:125%;letter-spacing:0px;word-spacing:0px;writing-mode:lr-tb;text-anchor:start;fill:#1a1a1a;fill-opacity:1;stroke:none;font-family:News Cycle;-inkscape-font-specification:News Cycle Bold" />
      <path
         d="m 217.38234,656.87378 0,-5.97592 19.14251,0 0,5.97592 -19.14251,0"
         id="path3993-4"
         inkscape:connector-curvature="0"
         style="font-size:9.99791336px;font-style:normal;font-variant:normal;font-weight:bold;font-stretch:normal;text-align:start;line-height:125%;letter-spacing:0px;word-spacing:0px;writing-mode:lr-tb;text-anchor:start;fill:#1a1a1a;fill-opacity:1;stroke:none;font-family:News Cycle;-inkscape-font-specification:News Cycle Bold" />
      <path
         d="m 236.52485,656.87378 0,-5.97592 19.14266,0 0,5.97592 -19.14266,0"
         id="path3995-9"
         inkscape:connector-curvature="0"
         style="font-size:9.99791336px;font-style:normal;font-variant:normal;font-weight:bold;font-stretch:normal;text-align:start;line-height:125%;letter-spacing:0px;word-spacing:0px;writing-mode:lr-tb;text-anchor:start;fill:#1a1a1a;fill-opacity:1;stroke:none;font-family:News Cycle;-inkscape-font-specification:News Cycle Bold" />
      <path
         d="m 255.66751,656.87378 0,-5.97592 19.14266,0 0,5.97592 -19.14266,0"
         id="path3997-4"
         inkscape:connector-curvature="0"
         style="font-size:9.99791336px;font-style:normal;font-variant:normal;font-weight:bold;font-stretch:normal;text-align:start;line-height:125%;letter-spacing:0px;word-spacing:0px;writing-mode:lr-tb;text-anchor:start;fill:#1a1a1a;fill-opacity:1;stroke:none;font-family:News Cycle;-inkscape-font-specification:News Cycle Bold" />
      <path
         d="m 274.81017,656.87378 0,-5.97592 19.14251,0 0,5.97592 -19.14251,0"
         id="path3999-5"
         inkscape:connector-curvature="0"
         style="font-size:9.99791336px;font-style:normal;font-variant:normal;font-weight:bold;font-stretch:normal;text-align:start;line-height:125%;letter-spacing:0px;word-spacing:0px;writing-mode:lr-tb;text-anchor:start;fill:#1a1a1a;fill-opacity:1;stroke:none;font-family:News Cycle;-inkscape-font-specification:News Cycle Bold" />
      <path
         d="m 313.09534,656.87378 0,-5.97592 19.14265,0 0,5.97592 -19.14265,0"
         id="path4001-9"
         inkscape:connector-curvature="0"
         style="font-size:9.99791336px;font-style:normal;font-variant:normal;font-weight:bold;font-stretch:normal;text-align:start;line-height:125%;letter-spacing:0px;word-spacing:0px;writing-mode:lr-tb;text-anchor:start;fill:#1a1a1a;fill-opacity:1;stroke:none;font-family:News Cycle;-inkscape-font-specification:News Cycle Bold" />
      <path
         d="m 370.52316,656.87378 0,-5.97592 19.14266,0 0,5.97592 -19.14266,0"
         id="path4003-2"
         inkscape:connector-curvature="0"
         style="font-size:9.99791336px;font-style:normal;font-variant:normal;font-weight:bold;font-stretch:normal;text-align:start;line-height:125%;letter-spacing:0px;word-spacing:0px;writing-mode:lr-tb;text-anchor:start;fill:#1a1a1a;fill-opacity:1;stroke:none;font-family:News Cycle;-inkscape-font-specification:News Cycle Bold" />
      <path
         d="m 427.95099,656.87378 0,-5.97592 19.14266,0 0,5.97592 -19.14266,0"
         id="path4005-6"
         inkscape:connector-curvature="0"
         style="font-size:9.99791336px;font-style:normal;font-variant:normal;font-weight:bold;font-stretch:normal;text-align:start;line-height:125%;letter-spacing:0px;word-spacing:0px;writing-mode:lr-tb;text-anchor:start;fill:#1a1a1a;fill-opacity:1;stroke:none;font-family:News Cycle;-inkscape-font-specification:News Cycle Bold" />
      <path
         d="m 466.23616,656.87378 0,-5.97592 19.14266,0 0,5.97592 -19.14266,0"
         id="path4007-2"
         inkscape:connector-curvature="0"
         style="font-size:9.99791336px;font-style:normal;font-variant:normal;font-weight:bold;font-stretch:normal;text-align:start;line-height:125%;letter-spacing:0px;word-spacing:0px;writing-mode:lr-tb;text-anchor:start;fill:#1a1a1a;fill-opacity:1;stroke:none;font-family:News Cycle;-inkscape-font-specification:News Cycle Bold" />
      <path
         d="m 504.52148,656.87378 0,-5.97592 19.14251,0 0,5.97592 -19.14251,0"
         id="path4009-0"
         inkscape:connector-curvature="0"
         style="font-size:9.99791336px;font-style:normal;font-variant:normal;font-weight:bold;font-stretch:normal;text-align:start;line-height:125%;letter-spacing:0px;word-spacing:0px;writing-mode:lr-tb;text-anchor:start;fill:#1a1a1a;fill-opacity:1;stroke:none;font-family:News Cycle;-inkscape-font-specification:News Cycle Bold" />
      <path
         d="m 561.94931,656.87378 0,-5.97592 19.14266,0 0,5.97592 -19.14266,0"
         id="path4011-0"
         inkscape:connector-curvature="0"
         style="font-size:9.99791336px;font-style:normal;font-variant:normal;font-weight:bold;font-stretch:normal;text-align:start;line-height:125%;letter-spacing:0px;word-spacing:0px;writing-mode:lr-tb;text-anchor:start;fill:#1a1a1a;fill-opacity:1;stroke:none;font-family:News Cycle;-inkscape-font-specification:News Cycle Bold" />
      <path
         d="m 619.37713,656.87378 0,-5.97592 19.14252,0 0,5.97592 -19.14252,0"
         id="path4013-7"
         inkscape:connector-curvature="0"
         style="font-size:9.99791336px;font-style:normal;font-variant:normal;font-weight:bold;font-stretch:normal;text-align:start;line-height:125%;letter-spacing:0px;word-spacing:0px;writing-mode:lr-tb;text-anchor:start;fill:#1a1a1a;fill-opacity:1;stroke:none;font-family:News Cycle;-inkscape-font-specification:News Cycle Bold" />
      <path
         d="m 638.51979,656.87378 0,-5.97592 19.14251,0 0,5.97592 -19.14251,0"
         id="path4015-1"
         inkscape:connector-curvature="0"
         style="font-size:9.99791336px;font-style:normal;font-variant:normal;font-weight:bold;font-stretch:normal;text-align:start;line-height:125%;letter-spacing:0px;word-spacing:0px;writing-mode:lr-tb;text-anchor:start;fill:#1a1a1a;fill-opacity:1;stroke:none;font-family:News Cycle;-inkscape-font-specification:News Cycle Bold" />
      <path
         d="m 676.80496,656.87378 0,-5.97592 19.14266,0 0,5.97592 -19.14266,0"
         id="path4017-2"
         inkscape:connector-curvature="0"
         style="font-size:9.99791336px;font-style:normal;font-variant:normal;font-weight:bold;font-stretch:normal;text-align:start;line-height:125%;letter-spacing:0px;word-spacing:0px;writing-mode:lr-tb;text-anchor:start;fill:#1a1a1a;fill-opacity:1;stroke:none;font-family:News Cycle;-inkscape-font-specification:News Cycle Bold" />
      <path
         d="m 416.43139,753.70833 -0.50706,0.44386 c -0.7187,0.67608 -1.47987,1.01559 -2.28337,1.01559 -0.76132,0 -1.311,-0.21165 -1.64919,-0.63493 -0.33804,-0.42328 -0.50706,-0.84509 -0.50706,-1.26838 0,-0.71869 0.38066,-1.43739 1.14198,-2.15653 l 3.86922,-3.80572 c 0.7187,-0.63346 1.4374,-0.95092 2.15653,-0.95092 0.50706,1.5e-4 1.01412,0.21164 1.52221,0.63492 0.54967,0.38066 0.82451,0.97297 0.82451,1.77603 l 0,38.94508 c 0,1.69151 -0.76132,2.53719 -2.28352,2.53719 -1.5222,0 -2.28337,-0.84509 -2.28337,-2.53719 l 0,-33.99767"
         style="font-size:4.41923475px;font-style:normal;font-variant:normal;font-weight:600;font-stretch:normal;text-align:start;line-height:125%;letter-spacing:0px;word-spacing:0px;writing-mode:lr-tb;text-anchor:start;fill:#4d4d4d;fill-opacity:1;stroke:none;font-family:Jura;-inkscape-font-specification:Jura Semi-Bold"
         id="path4155"
         inkscape:connector-curvature="0" />
      <path
         d="m 452.90276,753.70833 -5.83542,0 c -2.15653,0 -4.12289,0.33804 -5.89876,1.01559 -1.73384,0.67607 -2.60069,1.43739 -2.60069,2.28337 0,1.81835 -0.76132,2.72753 -2.28338,2.72753 -1.52234,0 -2.28337,-0.95092 -2.28337,-2.85437 0,-2.1142 1.14198,-3.93256 3.42506,-5.45476 2.28352,-1.52234 5.34923,-2.28337 9.19714,-2.28352 l 5.4549,0 c 5.07425,1.5e-4 8.64746,0.95092 10.71949,2.85437 2.1142,1.86053 3.17138,5.0109 3.17138,9.45081 0,1.39477 -0.76132,2.81203 -2.28337,4.24973 -1.52235,1.43739 -3.15037,2.57937 -4.88407,3.4252 1.69137,0.88772 3.29823,2.19887 4.82058,3.93256 1.56452,1.7337 2.34686,3.31939 2.34686,4.75708 0,4.44006 -1.05674,7.61144 -3.17138,9.5143 -2.07203,1.86054 -5.64524,2.79088 -10.71949,2.79088 l -5.4549,0 c -3.84791,0 -6.91362,-0.76132 -9.19714,-2.28352 -2.28337,-1.5222 -3.42506,-3.31939 -3.42506,-5.39142 0,-1.94504 0.76132,-2.91771 2.28337,-2.91771 1.52235,0 2.28338,0.90977 2.28338,2.72753 0,0.84509 0.86714,1.60686 2.60069,2.28337 1.73369,0.67608 3.6999,1.01559 5.89876,1.01559 l 5.83542,0 c 3.29837,0 5.53942,-0.54968 6.72343,-1.64919 1.22576,-1.14198 1.83952,-2.81189 1.83952,-5.01075 0,-1.90286 -1.35362,-3.61539 -4.0594,-5.13774 -2.66403,-1.52235 -5.24356,-2.28338 -7.73828,-2.28352 -2.24119,1.4e-4 -3.36186,-0.7819 -3.36171,-2.34672 -1.5e-4,-1.52235 1.11993,-2.28352 3.36171,-2.28352 2.74855,0 5.39127,-0.63493 7.92846,-1.90286 2.57938,-1.26838 3.86922,-2.83306 3.86922,-4.69374 0,-2.15653 -0.61288,-3.78455 -1.83952,-4.88391 -1.1846,-1.09936 -3.42506,-1.64919 -6.72343,-1.64919"
         style="font-size:4.41923475px;font-style:normal;font-variant:normal;font-weight:600;font-stretch:normal;text-align:start;line-height:125%;letter-spacing:0px;word-spacing:0px;writing-mode:lr-tb;text-anchor:start;fill:#4d4d4d;fill-opacity:1;stroke:none;font-family:Jura;-inkscape-font-specification:Jura Semi-Bold"
         id="path4157"
         inkscape:connector-curvature="0" />
      <path
         d="m 490.95998,790.43353 c -0.63493,0 -1.24781,-0.16902 -1.83937,-0.50706 -0.5923,-0.33804 -0.88772,-0.86714 -0.88772,-1.58569 -1.5e-4,-0.42328 0.14844,-0.93034 0.44386,-1.52235 l 14.01771,-33.42682 -17.88692,0 c -1.14199,0 -1.92403,0.23221 -2.34687,0.69812 -0.38066,0.42328 -0.57026,1.2478 -0.57026,2.4737 0,1.90301 -0.76132,2.85437 -2.28337,2.85437 -1.52235,0 -2.28352,-0.95092 -2.28352,-2.85437 0,-2.74839 0.54968,-4.71475 1.64918,-5.89876 1.14198,-1.22576 2.91771,-1.83937 5.32807,-1.83952 l 21.56566,0 c 1.5222,1.5e-4 2.28337,0.69812 2.28337,2.09319 0,0.33804 -0.0882,0.82452 -0.25426,1.45945 l -14.46171,36.02751 c -0.54968,1.35362 -1.3742,2.0297 -2.47371,2.0297"
         style="font-size:4.41923475px;font-style:normal;font-variant:normal;font-weight:600;font-stretch:normal;text-align:start;line-height:125%;letter-spacing:0px;word-spacing:0px;writing-mode:lr-tb;text-anchor:start;fill:#4d4d4d;fill-opacity:1;stroke:none;font-family:Jura;-inkscape-font-specification:Jura Semi-Bold"
         id="path4159"
         inkscape:connector-curvature="0" />
      <path
         d="m 548.93366,779.65055 -2.91771,0 0,8.11895 c 0,1.64918 -0.76132,2.4737 -2.28337,2.4737 -0.7187,0 -1.33158,-0.21164 -1.83952,-0.63492 -0.46443,-0.42329 -0.69812,-1.03616 -0.69812,-1.83937 l 0,-8.11894 -21.81948,0 0,-4.75708 21.31213,-25.75204 5.32792,0 0,25.94237 2.91771,0 c 1.77602,0 2.66404,0.76132 2.66404,2.28337 0,1.52235 -0.88772,2.28352 -2.66404,2.28338 m -7.73828,-4.56675 0,-20.1703 -16.61825,20.1703 16.61825,0"
         style="font-size:4.41923475px;font-style:normal;font-variant:normal;font-weight:600;font-stretch:normal;text-align:start;line-height:125%;letter-spacing:0px;word-spacing:0px;writing-mode:lr-tb;text-anchor:start;fill:#4d4d4d;fill-opacity:1;stroke:none;font-family:Jura;-inkscape-font-specification:Jura Semi-Bold"
         id="path4161"
         inkscape:connector-curvature="0" />
      <path
         d="m 594.22166,760.87577 c 0,2.11435 -0.90976,4.01722 -2.72738,5.70858 -1.77602,1.69137 -3.97489,3.17139 -6.59659,4.44006 -2.57953,1.22576 -5.20123,2.4737 -7.86512,3.74223 -2.62171,1.26838 -4.92639,2.8332 -6.91376,4.69373 -1.94519,1.81821 -3.02339,3.8479 -3.23488,6.0891 l 24.48351,0 c 1.90272,0 2.85422,0.78189 2.85422,2.34686 0,1.48002 -0.95092,2.22003 -2.85422,2.22003 l -29.05026,0 0,-3.61539 c -1.5e-4,-2.96004 0.93034,-5.58174 2.79073,-7.86526 1.90286,-2.32571 4.18638,-4.18624 6.85041,-5.5816 2.70622,-1.39478 5.39127,-2.66404 8.0553,-3.80572 2.66404,-1.18461 4.92625,-2.45254 6.78693,-3.80573 1.90286,-1.35362 2.85421,-2.8332 2.85421,-4.44005 0,-3.17139 -0.69812,-5.17992 -2.09304,-6.02575 -1.39477,-0.8451 -4.12289,-1.26838 -8.18229,-1.26838 l -9.70463,0 c -1.09936,0 -1.83937,0.21164 -2.22003,0.63492 -0.38066,0.42329 -0.57025,1.26838 -0.57025,2.53705 0,1.90301 -0.7819,2.85437 -2.34687,2.85437 -1.48002,0 -2.22003,-0.95092 -2.21988,-2.85437 -1.5e-4,-2.79072 0.54968,-4.77824 1.64904,-5.96225 1.09936,-1.18461 2.85436,-1.77588 5.26457,-1.77603 l 10.14864,0 c 5.11658,1.5e-4 8.85881,0.80395 11.22684,2.41036 2.41021,1.60686 3.61539,4.7149 3.61539,9.32397"
         style="font-size:4.41923475px;font-style:normal;font-variant:normal;font-weight:600;font-stretch:normal;text-align:start;line-height:125%;letter-spacing:0px;word-spacing:0px;writing-mode:lr-tb;text-anchor:start;fill:#4d4d4d;fill-opacity:1;stroke:none;font-family:Jura;-inkscape-font-specification:Jura Semi-Bold"
         id="path4163"
         inkscape:connector-curvature="0" />
      <path
         d="m 623.90626,753.70833 -5.83542,0 c -2.15654,0 -4.12289,0.33804 -5.89891,1.01559 -1.7337,0.67607 -2.60055,1.43739 -2.60055,2.28337 0,1.81835 -0.76132,2.72753 -2.28337,2.72753 -1.52235,0 -2.28352,-0.95092 -2.28352,-2.85437 0,-2.1142 1.14198,-3.93256 3.42521,-5.45476 2.28337,-1.52234 5.34908,-2.28337 9.19713,-2.28352 l 5.45491,0 c 5.07425,1.5e-4 8.64731,0.95092 10.71933,2.85437 2.11436,1.86053 3.17139,5.0109 3.17154,9.45081 -1.5e-4,1.39477 -0.76132,2.81203 -2.28352,4.24973 -1.52235,1.43739 -3.15023,2.57937 -4.88392,3.4252 1.69137,0.88772 3.29822,2.19887 4.82057,3.93256 1.56453,1.7337 2.34672,3.31939 2.34687,4.75708 -1.5e-4,4.44006 -1.05674,7.61144 -3.17154,9.5143 -2.07202,1.86054 -5.64508,2.79088 -10.71933,2.79088 l -5.45491,0 c -3.84805,0 -6.91376,-0.76132 -9.19713,-2.28352 -2.28338,-1.5222 -3.42521,-3.31939 -3.42521,-5.39142 0,-1.94504 0.76132,-2.91771 2.28352,-2.91771 1.5222,0 2.28337,0.90977 2.28337,2.72753 0,0.84509 0.86714,1.60686 2.60055,2.28337 1.73369,0.67608 3.70004,1.01559 5.89891,1.01559 l 5.83542,0 c 3.29822,0 5.53941,-0.54968 6.72343,-1.64919 1.22575,-1.14198 1.83937,-2.81189 1.83937,-5.01075 0,-1.90286 -1.35362,-3.61539 -4.0594,-5.13774 -2.66403,-1.52235 -5.24341,-2.28338 -7.73828,-2.28352 -2.24119,1.4e-4 -3.36172,-0.7819 -3.36172,-2.34672 0,-1.52235 1.11994,-2.28352 3.36172,-2.28352 2.74854,0 5.39141,-0.63493 7.92861,-1.90286 2.57938,-1.26838 3.86907,-2.83306 3.86907,-4.69374 0,-2.15653 -0.61288,-3.78455 -1.83937,-4.88391 -1.1846,-1.09936 -3.42521,-1.64919 -6.72343,-1.64919"
         style="font-size:4.41923475px;font-style:normal;font-variant:normal;font-weight:600;font-stretch:normal;text-align:start;line-height:125%;letter-spacing:0px;word-spacing:0px;writing-mode:lr-tb;text-anchor:start;fill:#4d4d4d;fill-opacity:1;stroke:none;font-family:Jura;-inkscape-font-specification:Jura Semi-Bold"
         id="path4165"
         inkscape:connector-curvature="0" />
      <path
         d="m 650.03881,780.85573 c 0.33804,0 1.09936,0.42329 2.28352,1.26838 1.18313,0.80394 2.74854,1.62788 4.69359,2.47371 1.94519,0.80394 4.01721,1.20518 6.21608,1.20518 3.80572,0 6.65994,-0.93034 8.5628,-2.79088 1.90286,-1.90271 2.85436,-4.56674 2.85436,-7.99195 0,-3.12906 -1.03616,-5.43375 -3.10804,-6.91376 -2.0297,-1.47988 -4.2074,-2.21989 -6.5331,-2.21989 l -16.74523,0 0.57025,-8.30912 c 0.21164,-3.1292 0.93034,-5.30691 2.15669,-6.53325 1.22575,-1.26838 3.17138,-1.90271 5.83542,-1.90286 l 17.06225,0 c 1.77602,1.5e-4 2.66403,0.7819 2.66403,2.34687 0,0.5923 -0.21164,1.1214 -0.63492,1.58569 -0.38066,0.42328 -1.05674,0.63492 -2.0297,0.63492 l -17.56975,0 c -0.88772,0 -1.54336,0.21164 -1.96621,0.63493 -0.42328,0.38066 -0.69812,1.14198 -0.82452,2.28337 l -0.38066,4.69373 11.29033,0 c 3.93256,0 7.37879,1.24781 10.33882,3.74223 2.95989,2.45269 4.43991,5.77208 4.44006,9.95831 -1.5e-4,4.77839 -1.48017,8.54179 -4.44006,11.29033 -2.91771,2.70622 -6.76576,4.0594 -11.544,4.0594 -3.00237,0 -6.32175,-0.7819 -9.95831,-2.34687 -3.59423,-1.56453 -5.39141,-3.19255 -5.39141,-4.88392 0,-0.63492 0.23222,-1.16255 0.69812,-1.58584 0.4659,-0.46443 0.95092,-0.69812 1.45944,-0.69812"
         style="font-size:4.41923475px;font-style:normal;font-variant:normal;font-weight:600;font-stretch:normal;text-align:start;line-height:125%;letter-spacing:0px;word-spacing:0px;writing-mode:lr-tb;text-anchor:start;fill:#4d4d4d;fill-opacity:1;stroke:none;font-family:Jura;-inkscape-font-specification:Jura Semi-Bold"
         id="path4167"
         inkscape:connector-curvature="0" />
      <path
         d="m 722.47421,760.87577 c 0,2.11435 -0.90977,4.01722 -2.72738,5.70858 -1.77602,1.69137 -3.97489,3.17139 -6.5966,4.44006 -2.57937,1.22576 -5.20108,2.4737 -7.86511,3.74223 -2.62171,1.26838 -4.92625,2.8332 -6.91377,4.69373 -1.94504,1.81821 -3.02338,3.8479 -3.23487,6.0891 l 24.48351,0 c 1.90286,0 2.85422,0.78189 2.85422,2.34686 0,1.48002 -0.95092,2.22003 -2.85422,2.22003 l -29.05026,0 0,-3.61539 c 0,-2.96004 0.93034,-5.58174 2.79087,-7.86526 1.90286,-2.32571 4.18624,-4.18624 6.85027,-5.5816 2.70622,-1.39478 5.39141,-2.66404 8.05545,-3.80572 2.66389,-1.18461 4.92624,-2.45254 6.78678,-3.80573 1.90286,-1.35362 2.85421,-2.8332 2.85436,-4.44005 -1.5e-4,-3.17139 -0.69812,-5.17992 -2.09319,-6.02575 -1.39478,-0.8451 -4.12289,-1.26838 -8.18229,-1.26838 l -9.70463,0 c -1.09936,0 -1.83937,0.21164 -2.21988,0.63492 -0.38066,0.42329 -0.57026,1.26838 -0.57026,2.53705 0,1.90301 -0.7819,2.85437 -2.34672,2.85437 -1.48002,0 -2.22003,-0.95092 -2.22003,-2.85437 0,-2.79072 0.54968,-4.77824 1.64904,-5.96225 1.09936,-1.18461 2.85437,-1.77588 5.26458,-1.77603 l 10.14864,0 c 5.11657,1.5e-4 8.8588,0.80395 11.22683,2.41036 2.41021,1.60686 3.61539,4.7149 3.61539,9.32397"
         style="font-size:4.41923475px;font-style:normal;font-variant:normal;font-weight:600;font-stretch:normal;text-align:start;line-height:125%;letter-spacing:0px;word-spacing:0px;writing-mode:lr-tb;text-anchor:start;fill:#4d4d4d;fill-opacity:1;stroke:none;font-family:Jura;-inkscape-font-specification:Jura Semi-Bold"
         id="path4169"
         inkscape:connector-curvature="0" />
      <path
         d="m 736.23824,753.70833 -0.50706,0.44386 c -0.7187,0.67608 -1.48002,1.01559 -2.28352,1.01559 -0.76132,0 -1.311,-0.21165 -1.64904,-0.63493 -0.33804,-0.42328 -0.50705,-0.84509 -0.50705,-1.26838 0,-0.71869 0.38066,-1.43739 1.14198,-2.15653 l 3.86921,-3.80572 c 0.7187,-0.63346 1.4374,-0.95092 2.15654,-0.95092 0.50705,1.5e-4 1.01558,0.21164 1.52234,0.63492 0.54968,0.38066 0.82452,0.97297 0.82452,1.77603 l 0,38.94508 c 0,1.69151 -0.76132,2.53719 -2.28337,2.53719 -1.52235,0 -2.28352,-0.84509 -2.28352,-2.53719 l 0,-33.99767"
         style="font-size:4.41923475px;font-style:normal;font-variant:normal;font-weight:bold;font-stretch:normal;text-align:start;line-height:125%;letter-spacing:0px;word-spacing:0px;writing-mode:lr-tb;text-anchor:start;fill:#1a1a1a;fill-opacity:1;stroke:none;font-family:News Cycle;-inkscape-font-specification:News Cycle Bold"
         id="path4171"
         inkscape:connector-curvature="0" />
      <path
         d="m 772.70976,753.70833 -5.83542,0 c -2.15668,0 -4.12289,0.33804 -5.89891,1.01559 -1.7337,0.67607 -2.60054,1.43739 -2.60054,2.28337 0,1.81835 -0.76132,2.72753 -2.28352,2.72753 -1.5222,0 -2.28338,-0.95092 -2.28338,-2.85437 0,-2.1142 1.14198,-3.93256 3.42521,-5.45476 2.28337,-1.52234 5.34909,-2.28337 9.19714,-2.28352 l 5.45475,0 c 5.07425,1.5e-4 8.64746,0.95092 10.71949,2.85437 2.11421,1.86053 3.17138,5.0109 3.17138,9.45081 0,1.39477 -0.76132,2.81203 -2.28337,4.24973 -1.52235,1.43739 -3.15037,2.57937 -4.88406,3.4252 1.69136,0.88772 3.29822,2.19887 4.82057,3.93256 1.56453,1.7337 2.34686,3.31939 2.34686,4.75708 0,4.44006 -1.05673,7.61144 -3.17138,9.5143 -2.07203,1.86054 -5.64524,2.79088 -10.71949,2.79088 l -5.45475,0 c -3.84805,0 -6.91377,-0.76132 -9.19714,-2.28352 -2.28352,-1.5222 -3.42521,-3.31939 -3.42521,-5.39142 0,-1.94504 0.76132,-2.91771 2.28338,-2.91771 1.52234,0 2.28352,0.90977 2.28352,2.72753 0,0.84509 0.86714,1.60686 2.60054,2.28337 1.73369,0.67608 3.6999,1.01559 5.89891,1.01559 l 5.83542,0 c 3.29822,0 5.53927,-0.54968 6.72343,-1.64919 1.22576,-1.14198 1.83937,-2.81189 1.83937,-5.01075 0,-1.90286 -1.35362,-3.61539 -4.0594,-5.13774 -2.66403,-1.52235 -5.24356,-2.28338 -7.73828,-2.28352 -2.24119,1.4e-4 -3.36171,-0.7819 -3.36171,-2.34672 0,-1.52235 1.11993,-2.28352 3.36171,-2.28352 2.74855,0 5.39142,-0.63493 7.92847,-1.90286 2.57952,-1.26838 3.86921,-2.83306 3.86921,-4.69374 0,-2.15653 -0.61288,-3.78455 -1.83937,-4.88391 -1.1846,-1.09936 -3.42521,-1.64919 -6.72343,-1.64919"
         style="font-size:4.41923475px;font-style:normal;font-variant:normal;font-weight:bold;font-stretch:normal;text-align:start;line-height:125%;letter-spacing:0px;word-spacing:0px;writing-mode:lr-tb;text-anchor:start;fill:#1a1a1a;fill-opacity:1;stroke:none;font-family:News Cycle;-inkscape-font-specification:News Cycle Bold"
         id="path4173"
         inkscape:connector-curvature="0" />
      <path
         d="m 38.644823,713.54396 c 0,7.37247 1.609503,12.04519 4.828508,14.01815 3.219004,1.97297 9.449194,2.95931 18.690863,2.95931 4.672715,0 7.009147,1.76529 7.009147,5.29588 0,3.94578 -2.336432,5.91875 -7.009147,5.91875 -11.733745,0 -20.456157,-1.92108 -26.167238,-5.76311 -5.711081,-3.94579 -8.566621,-11.26637 -8.566621,-21.96175 l 0,-33.64361 c -3.219005,-0.51882 -4.828507,-2.33628 -4.828507,-5.45153 0,-2.69975 1.609502,-4.30925 4.828507,-4.8285 l 0,-14.79696 c 0,-4.77648 1.765147,-7.16479 5.295735,-7.16494 3.945786,1.5e-4 5.918753,2.38846 5.918753,7.16494 l 0,14.64117 19.937048,0 c 4.776479,1.4e-4 7.164792,1.97296 7.164792,5.91875 0,3.53059 -2.388313,5.29588 -7.164792,5.29588 l -19.937048,0 0,32.39757"
         style="font-size:10.85203743px;font-style:normal;font-variant:normal;font-weight:bold;font-stretch:normal;text-align:start;line-height:125%;letter-spacing:0px;word-spacing:0px;writing-mode:lr-tb;text-anchor:start;fill:#333333;fill-opacity:1;stroke:none;font-family:News Cycle;-inkscape-font-specification:News Cycle Bold"
         id="path4176"
         inkscape:connector-curvature="0" />
      <path
         d="m 135.68175,741.73605 -4.51692,0 c -14.01815,0 -24.09051,-1.86906 -30.21693,-5.60732 -6.126577,-3.84202 -9.189791,-11.21449 -9.189791,-22.11754 l 0,-16.35458 c 0,-10.9029 3.063214,-18.22363 9.189791,-21.96175 6.12642,-3.84202 16.19878,-5.76296 30.21693,-5.7631 l 4.51692,0 c 13.91439,1.4e-4 23.93472,1.92108 30.06129,5.7631 6.12628,3.73812 9.18965,11.05885 9.18965,21.96175 l 0,16.35458 c 0,10.90305 -3.06337,18.27552 -9.18965,22.11754 -6.12657,3.73826 -16.1469,5.60732 -30.06129,5.60732 m -4.51692,-11.21463 4.51692,0 c 11.52608,0 19.05433,-0.93475 22.58492,-2.80352 3.6342,-1.97296 5.45138,-6.69756 5.45153,-14.17394 l 0,-15.42012 c -1.5e-4,-7.47623 -1.81733,-12.14894 -5.45153,-14.01815 -3.53059,-1.97282 -11.05884,-2.9593 -22.58492,-2.9593 l -4.51692,0 c -11.62998,0 -19.262,0.98619 -22.89635,2.9593 -3.53059,1.86921 -5.29574,6.54192 -5.29574,14.01815 l 0,15.42012 c 0,7.47638 1.76515,12.20098 5.29574,14.17394 3.63435,1.86906 11.26637,2.80352 22.89635,2.80352"
         style="font-size:10.85203743px;font-style:normal;font-variant:normal;font-weight:bold;font-stretch:normal;text-align:start;line-height:125%;letter-spacing:0px;word-spacing:0px;writing-mode:lr-tb;text-anchor:start;fill:#333333;fill-opacity:1;stroke:none;font-family:News Cycle;-inkscape-font-specification:News Cycle Bold"
         id="path4178"
         inkscape:connector-curvature="0" />
      <path
         d="m 273.37145,698.12384 c 0,-7.47623 -1.81718,-12.14894 -5.45138,-14.01815 -3.53059,-1.97282 -11.05899,-2.9593 -22.58492,-2.9593 l -4.51692,0 c -10.59162,0 -17.96408,2.23252 -22.11769,6.69756 -4.0497,4.36114 -6.07455,10.28004 -6.07455,17.75627 l 0,24.9212 33.17639,0 c 11.3184,0 18.74274,-0.93475 22.27333,-2.80352 3.53044,-1.97296 5.29574,-6.69756 5.29574,-14.17394 l 0,-15.42012 m 11.21463,15.88735 c -1.5e-4,10.90305 -3.06336,18.27552 -9.18979,22.11754 -6.02266,3.73826 -15.88735,5.60732 -29.59391,5.60732 l -33.17639,0 0,21.33873 c 0,4.67272 -1.97282,7.00915 -5.91875,7.00915 -3.53044,0 -5.29573,-2.33643 -5.29573,-7.00915 l 0,-87.6915 c 0,-4.36113 1.86905,-6.54177 5.60731,-6.54177 3.73812,0 5.60717,2.33643 5.60717,7.009 l 0,1.8692 c 6.43801,-5.19197 15.83533,-7.78781 28.19224,-7.78795 l 4.51692,0 c 13.91424,1.4e-4 23.93472,1.92108 30.06114,5.7631 6.12643,3.73812 9.18964,11.05885 9.18979,21.96175 l 0,16.35458"
         style="font-size:10.85203743px;font-style:normal;font-variant:normal;font-weight:bold;font-stretch:normal;text-align:start;line-height:125%;letter-spacing:0px;word-spacing:0px;writing-mode:lr-tb;text-anchor:start;fill:#333333;fill-opacity:1;stroke:none;font-family:News Cycle;-inkscape-font-specification:News Cycle Bold"
         id="path4180"
         inkscape:connector-curvature="0" />
      <path
         d="m 350.47148,694.22994 21.33887,0 0,-6.54178 c -1.4e-4,-2.59598 -0.46737,-4.30925 -1.40212,-5.14009 -0.93475,-0.93475 -2.80381,-1.40212 -5.60732,-1.40212 l -21.96175,0 c -8.09954,0 -13.55106,0.46737 -16.35458,1.40212 -2.80365,0.8304 -4.20548,2.38846 -4.20548,4.67287 0,4.67271 -1.92109,7.009 -5.76297,7.009 -3.63435,0 -5.45152,-2.33629 -5.45152,-7.009 0,-6.54178 2.59584,-11.05885 7.78781,-13.55092 5.29573,-2.49208 12.9279,-3.73812 22.89635,-3.73826 l 24.14239,0 c 6.64568,1.4e-4 11.16261,1.55762 13.55092,4.67271 2.38831,3.11524 3.58232,8.30721 3.58247,15.57577 l 0,46.10428 c -1.5e-4,4.36114 -1.86921,6.54178 -5.60732,6.54178 -3.73826,0 -5.60732,-2.33629 -5.60717,-7.009 l 0,-1.86921 c -6.23048,5.19198 -15.57592,7.78796 -28.03644,7.78796 l -14.48538,0 c -5.29588,0 -9.65701,-1.81717 -13.08369,-5.45153 -3.42668,-3.63435 -5.13994,-8.51473 -5.13994,-14.64116 0,-10.59162 3.11509,-17.80829 9.34543,-21.65032 6.3341,-3.84202 16.35443,-5.7631 30.06114,-5.7631 m 21.33888,11.21463 -21.33888,0 c -11.62983,0 -19.262,0.98619 -22.89635,2.9593 -3.53044,1.86921 -5.29573,6.54192 -5.29573,14.01815 0,2.18064 0.77895,4.10173 2.33643,5.76311 1.55747,1.55762 3.11509,2.33629 4.67271,2.33629 l 14.48538,0 c 6.02266,0 11.0587,-0.77896 15.10854,-2.33629 4.04955,-1.55762 6.90509,-3.73826 8.56662,-6.54177 1.76515,-2.80366 2.90742,-5.39965 3.42668,-7.78796 0.62316,-2.38831 0.93475,-5.19182 0.93475,-8.41083"
         style="font-size:10.85203743px;font-style:normal;font-variant:normal;font-weight:bold;font-stretch:normal;text-align:start;line-height:125%;letter-spacing:0px;word-spacing:0px;writing-mode:lr-tb;text-anchor:start;fill:#333333;fill-opacity:1;stroke:none;font-family:News Cycle;-inkscape-font-specification:News Cycle Bold"
         id="path4182"
         inkscape:connector-curvature="0" />
      <path
         d="m 448.91038,681.14639 c -10.48785,0 -17.80843,2.2844 -21.96189,6.85321 -4.15361,4.46519 -6.23034,10.48771 -6.23034,18.06799 l 0,30.21693 c 0,4.36114 -1.86906,6.54178 -5.60717,6.54178 -3.73826,0 -5.60732,-2.18064 -5.60732,-6.54178 l 0,-87.5357 c 0,-4.77648 1.7653,-7.1648 5.29574,-7.16494 3.94578,1.4e-4 5.91875,2.38846 5.91875,7.16494 l 0,28.97089 c 6.43801,-5.19197 15.83532,-7.78781 28.19223,-7.78795 l 4.51693,0 c 13.91424,1.4e-4 23.93457,1.92108 30.06114,5.7631 6.12643,3.73812 9.18964,11.05885 9.18979,21.96175 l 0,38.62791 c -1.5e-4,4.36114 -1.81732,6.54178 -5.45153,6.54178 -3.84217,0 -5.76311,-2.18064 -5.76311,-6.54178 l 0,-38.16068 c 0,-7.47623 -1.81717,-12.14894 -5.45152,-14.01815 -3.53059,-1.97282 -11.05885,-2.9593 -22.58477,-2.9593 l -4.51693,0"
         style="font-size:10.85203743px;font-style:normal;font-variant:normal;font-weight:600;font-stretch:normal;text-align:start;line-height:125%;letter-spacing:0px;word-spacing:0px;writing-mode:lr-tb;text-anchor:start;fill:#1a1a1a;fill-opacity:1;stroke:none;font-family:Jura;-inkscape-font-specification:Jura Semi-Bold"
         id="path4184"
         inkscape:connector-curvature="0" />
      <path
         d="m 558.56363,694.22994 21.33873,0 0,-6.54178 c 0,-2.59598 -0.46737,-4.30925 -1.40212,-5.14009 -0.93475,-0.93475 -2.80366,-1.40212 -5.60717,-1.40212 l -21.9619,0 c -8.09939,0 -13.55092,0.46737 -16.35457,1.40212 -2.80366,0.8304 -4.20549,2.38846 -4.20535,4.67287 -1.4e-4,4.67271 -1.92108,7.009 -5.7631,7.009 -3.63436,0 -5.45153,-2.33629 -5.45153,-7.009 0,-6.54178 2.59598,-11.05885 7.78796,-13.55092 5.29573,-2.49208 12.92775,-3.73812 22.89635,-3.73826 l 24.14239,0 c 6.64553,1.4e-4 11.1626,1.55762 13.55092,4.67271 2.38816,3.11524 3.58232,8.30721 3.58247,15.57577 l 0,46.10428 c -1.5e-4,4.36114 -1.86921,6.54178 -5.60732,6.54178 -3.73826,0 -5.60732,-2.33629 -5.60732,-7.009 l 0,-1.86921 c -6.23034,5.19198 -15.57577,7.78796 -28.03629,7.78796 l -14.48553,0 c -5.29573,0 -9.65701,-1.81717 -13.08354,-5.45153 -3.42668,-3.63435 -5.14009,-8.51473 -5.14009,-14.64116 0,-10.59162 3.11524,-17.80829 9.34543,-21.65032 6.3341,-3.84202 16.35458,-5.7631 30.06129,-5.7631 m 21.33873,11.21463 -21.33873,0 c -11.62998,0 -19.262,0.98619 -22.89635,2.9593 -3.53059,1.86921 -5.29588,6.54192 -5.29574,14.01815 -1.4e-4,2.18064 0.77896,4.10173 2.33629,5.76311 1.55762,1.55762 3.11509,2.33629 4.67271,2.33629 l 14.48553,0 c 6.02251,0 11.05869,-0.77896 15.10839,-2.33629 4.0497,-1.55762 6.90524,-3.73826 8.56677,-6.54177 1.76514,-2.80366 2.90742,-5.39965 3.42668,-7.78796 0.62316,-2.38831 0.93474,-5.19182 0.93474,-8.41083"
         style="font-size:10.85203743px;font-style:normal;font-variant:normal;font-weight:600;font-stretch:normal;text-align:start;line-height:125%;letter-spacing:0px;word-spacing:0px;writing-mode:lr-tb;text-anchor:start;fill:#1a1a1a;fill-opacity:1;stroke:none;font-family:Jura;-inkscape-font-specification:Jura Semi-Bold"
         id="path4186"
         inkscape:connector-curvature="0" />
      <path
         d="m 678.96429,741.73605 -21.96189,0 c -14.01815,0 -24.09051,-1.86906 -30.21694,-5.60732 -6.12643,-3.84202 -9.18979,-11.21449 -9.18979,-22.11754 l 0,-16.35458 c 0,-10.9029 3.06336,-18.22363 9.18979,-21.96175 6.12643,-3.84202 16.19879,-5.76296 30.21694,-5.7631 l 21.96189,0 c 6.7493,1.4e-4 11.26637,1.76529 13.55092,5.29573 2.38817,3.42682 3.58232,7.99563 3.58232,13.70671 0,4.67272 -1.8692,7.00915 -5.60717,7.00915 -1.45356,0 -2.75192,-0.51882 -3.89405,-1.55762 -1.14198,-1.0391 -1.71341,-2.75163 -1.71326,-5.13995 -1.5e-4,-3.11509 -0.46738,-5.24385 -1.40213,-6.38612 -0.93475,-1.14199 -2.80366,-1.71327 -5.60732,-1.71327 l -20.8715,0 c -11.62998,0 -19.262,0.98619 -22.89635,2.9593 -3.53059,1.86921 -5.29573,6.54192 -5.29573,14.01815 l 0,15.42012 c 0,7.47638 1.76514,12.20098 5.29573,14.17394 3.63435,1.86906 11.26637,2.80352 22.89635,2.80352 l 20.8715,0 c 2.80366,0 4.67272,-0.57026 5.60732,-1.71327 0.93475,-1.14198 1.40213,-3.27089 1.40213,-6.38613 -1.5e-4,-2.38816 0.57025,-4.10158 1.71326,-5.13994 1.14198,-1.0391 2.4402,-1.55762 3.89405,-1.55762 3.73797,0 5.60717,2.38831 5.60717,7.16494 0,5.71108 -1.19342,10.28003 -3.58232,13.70656 -2.28455,3.42668 -6.80162,5.14009 -13.55092,5.14009"
         style="font-size:10.85203743px;font-style:normal;font-variant:normal;font-weight:600;font-stretch:normal;text-align:start;line-height:125%;letter-spacing:0px;word-spacing:0px;writing-mode:lr-tb;text-anchor:start;fill:#1a1a1a;fill-opacity:1;stroke:none;font-family:Jura;-inkscape-font-specification:Jura Semi-Bold"
         id="path4188"
         inkscape:connector-curvature="0" />
      <path
         d="m 785.96967,737.53056 c 0,1.24633 -0.51881,2.4402 -1.55762,3.58247 -1.0391,1.0391 -2.2844,1.55748 -3.73811,1.55748 -1.55762,0 -3.16712,-0.72605 -4.82851,-2.1805 l -39.09514,-34.734 -2.95945,2.95945 0,27.56906 c 0,4.36114 -1.92094,6.54178 -5.76296,6.54178 -3.63435,0 -5.45153,-2.02485 -5.45153,-6.07455 l 0,-88.47031 c 0,-2.38816 0.57173,-4.10143 1.71327,-5.13994 1.14198,-1.0391 2.44019,-1.55748 3.89405,-1.55762 1.45357,1.4e-4 2.75163,0.51881 3.89391,1.55762 1.14198,1.0391 1.71326,2.75178 1.71326,5.13994 l 0,49.53097 30.52852,-26.47883 c 1.66138,-1.45356 3.32277,-2.18049 4.9843,-2.18064 1.34921,1.5e-4 2.59584,0.51882 3.73811,1.55763 1.14198,1.0391 1.71327,2.28455 1.71342,3.73811 -1.5e-4,1.76544 -0.8304,3.27103 -2.49223,4.51707 l -27.25748,21.80596 38.78355,32.08614 c 1.45357,1.0391 2.18064,2.59598 2.18064,4.67271"
         style="font-size:10.85203743px;font-style:normal;font-variant:normal;font-weight:600;font-stretch:normal;text-align:start;line-height:125%;letter-spacing:0px;word-spacing:0px;writing-mode:lr-tb;text-anchor:start;fill:#1a1a1a;fill-opacity:1;stroke:none;font-family:Jura;-inkscape-font-specification:Jura Semi-Bold"
         id="path4190"
         inkscape:connector-curvature="0" />
    </g>
  </g>
</svg>
