<?xml version="1.0" encoding="UTF-8" standalone="no"?>
<!-- Created with Inkscape (http://www.inkscape.org/) -->

<svg
   xmlns:dc="http://purl.org/dc/elements/1.1/"
   xmlns:cc="http://creativecommons.org/ns#"
   xmlns:rdf="http://www.w3.org/1999/02/22-rdf-syntax-ns#"
   xmlns:svg="http://www.w3.org/2000/svg"
   xmlns="http://www.w3.org/2000/svg"
   xmlns:sodipodi="http://sodipodi.sourceforge.net/DTD/sodipodi-0.dtd"
   xmlns:inkscape="http://www.inkscape.org/namespaces/inkscape"
   width="500"
   height="500"
   id="svg2"
   sodipodi:version="0.32"
   inkscape:version="0.48.3.1 r9886"
   sodipodi:docname="txapa.svg"
   inkscape:output_extension="org.inkscape.output.svg.inkscape"
   version="1.1"
   inkscape:export-filename="/home/koxta/proiektuak/interhacklab/topahack/images/txapa.png"
   inkscape:export-xdpi="300"
   inkscape:export-ydpi="300">
  <defs
     id="defs4" />
  <sodipodi:namedview
     id="base"
     pagecolor="#ffffff"
     bordercolor="#666666"
     borderopacity="1.0"
     inkscape:pageopacity="0.0"
     inkscape:pageshadow="2"
     inkscape:zoom="0.87245924"
     inkscape:cx="186.98497"
     inkscape:cy="272.97956"
     inkscape:document-units="px"
     inkscape:current-layer="layer1"
     inkscape:window-width="1398"
     inkscape:window-height="1029"
     inkscape:window-x="0"
     inkscape:window-y="19"
     showgrid="false"
     showguides="true"
     inkscape:guide-bbox="true"
     inkscape:window-maximized="0"
     borderlayer="true"
     inkscape:snap-page="true" />
  <metadata
     id="metadata7">
    <rdf:RDF>
      <cc:Work
         rdf:about="">
        <dc:format>image/svg+xml</dc:format>
        <dc:type
           rdf:resource="http://purl.org/dc/dcmitype/StillImage" />
        <dc:title></dc:title>
      </cc:Work>
    </rdf:RDF>
  </metadata>
  <g
     inkscape:label="Capa 1"
     inkscape:groupmode="layer"
     id="layer1"
     transform="translate(0,-552.36218)">
    <rect
       style="color:#000000;fill:#ffffff;fill-opacity:1;fill-rule:nonzero;stroke:none;stroke-width:0.50000000000000000;stroke-linecap:round;stroke-linejoin:bevel;stroke-miterlimit:4;stroke-opacity:1;stroke-dasharray:none;stroke-dashoffset:0;marker:none;visibility:visible;display:inline;overflow:visible;enable-background:accumulate"
       id="rect5590"
       width="500"
       height="500"
       x="0"
       y="0"
       transform="translate(0,552.36218)" />
    <flowRoot
       xml:space="preserve"
       id="flowRoot3972"
       style="font-size:11px;font-style:normal;font-variant:normal;font-weight:bold;font-stretch:normal;text-align:start;line-height:125%;letter-spacing:0px;word-spacing:0px;writing-mode:lr-tb;text-anchor:start;fill:#000000;fill-opacity:1;stroke:none;font-family:News Cycle;-inkscape-font-specification:News Cycle Bold"><flowRegion
         id="flowRegion3974"><rect
           id="rect3976"
           width="37.006294"
           height="13.146973"
           x="67.926025"
           y="393.55276" /></flowRegion><flowPara
         id="flowPara3978" /></flowRoot>    <g
       id="g5548"
       transform="translate(3.3295683,-5.4054351)">
      <g
         transform="matrix(0.96484417,0,0,0.96484417,-126.33416,710.87763)"
         id="g5492">
        <path
           inkscape:connector-curvature="0"
           id="path4155"
           style="font-size:4.41923475px;font-style:normal;font-variant:normal;font-weight:600;font-stretch:normal;text-align:start;line-height:125%;letter-spacing:0px;word-spacing:0px;writing-mode:lr-tb;text-anchor:start;fill:#4d4d4d;fill-opacity:1;stroke:none;font-family:Jura;-inkscape-font-specification:Jura Semi-Bold"
           d="m 187.40428,210.53094 -0.552,0.4832 c -0.7824,0.736 -1.61104,1.1056 -2.48576,1.1056 -0.8288,0 -1.4272,-0.2304 -1.79536,-0.6912 -0.368,-0.4608 -0.552,-0.92 -0.552,-1.3808 0,-0.7824 0.4144,-1.5648 1.2432,-2.34768 l 4.21216,-4.14304 c 0.7824,-0.6896 1.5648,-1.0352 2.34768,-1.0352 0.552,1.6e-4 1.104,0.2304 1.65712,0.6912 0.5984,0.4144 0.8976,1.0592 0.8976,1.93344 l 0,42.39696 c 0,1.84144 -0.8288,2.76208 -2.48592,2.76208 -1.65712,0 -2.48576,-0.92 -2.48576,-2.76208 l 0,-37.01104" />
        <path
           inkscape:connector-curvature="0"
           id="path4157"
           style="font-size:4.41923475px;font-style:normal;font-variant:normal;font-weight:600;font-stretch:normal;text-align:start;line-height:125%;letter-spacing:0px;word-spacing:0px;writing-mode:lr-tb;text-anchor:start;fill:#4d4d4d;fill-opacity:1;stroke:none;font-family:Jura;-inkscape-font-specification:Jura Semi-Bold"
           d="m 227.10828,210.53094 -6.35264,0 c -2.34768,0 -4.48832,0.368 -6.4216,1.1056 -1.88752,0.736 -2.8312,1.5648 -2.8312,2.48576 0,1.97952 -0.8288,2.96928 -2.48576,2.96928 -1.65728,0 -2.48576,-1.0352 -2.48576,-3.10736 0,-2.3016 1.2432,-4.28112 3.72864,-5.93824 2.48592,-1.65728 5.82336,-2.48576 10.01232,-2.48592 l 5.9384,0 c 5.524,1.6e-4 9.41392,1.0352 11.6696,3.10736 2.3016,2.02544 3.45248,5.45504 3.45248,10.28848 0,1.5184 -0.8288,3.06128 -2.48576,4.6264 -1.65728,1.5648 -3.4296,2.808 -5.31696,3.7288 1.84128,0.9664 3.59056,2.39376 5.24784,4.28112 1.7032,1.88736 2.55488,3.6136 2.55488,5.17872 0,4.8336 -1.1504,8.28608 -3.45248,10.3576 -2.25568,2.02544 -6.1456,3.03824 -11.6696,3.03824 l -5.9384,0 c -4.18896,0 -7.5264,-0.8288 -10.01232,-2.48592 -2.48576,-1.65712 -3.72864,-3.6136 -3.72864,-5.86928 0,-2.11744 0.8288,-3.17632 2.48576,-3.17632 1.65728,0 2.48576,0.9904 2.48576,2.96928 0,0.92 0.944,1.74928 2.8312,2.48576 1.88736,0.736 4.02784,1.1056 6.4216,1.1056 l 6.35264,0 c 3.59072,0 6.0304,-0.5984 7.31936,-1.79536 1.3344,-1.2432 2.00256,-3.06112 2.00256,-5.45488 0,-2.07152 -1.4736,-3.93584 -4.4192,-5.59312 -2.90016,-1.65728 -5.70832,-2.48576 -8.42416,-2.48592 -2.43984,1.6e-4 -3.65984,-0.8512 -3.65968,-2.55472 -1.6e-4,-1.65728 1.2192,-2.48592 3.65968,-2.48592 2.99216,0 5.86912,-0.6912 8.6312,-2.07152 2.808,-1.3808 4.21216,-3.08416 4.21216,-5.10976 0,-2.34768 -0.6672,-4.12 -2.00256,-5.3168 -1.2896,-1.1968 -3.72864,-1.79536 -7.31936,-1.79536" />
        <path
           inkscape:connector-curvature="0"
           id="path4159"
           style="font-size:4.41923475px;font-style:normal;font-variant:normal;font-weight:600;font-stretch:normal;text-align:start;line-height:125%;letter-spacing:0px;word-spacing:0px;writing-mode:lr-tb;text-anchor:start;fill:#4d4d4d;fill-opacity:1;stroke:none;font-family:Jura;-inkscape-font-specification:Jura Semi-Bold"
           d="m 268.53868,250.51126 c -0.6912,0 -1.3584,-0.184 -2.0024,-0.552 -0.6448,-0.368 -0.9664,-0.944 -0.9664,-1.72624 -1.6e-4,-0.4608 0.1616,-1.0128 0.4832,-1.65728 l 15.26016,-36.3896 -19.47232,0 c -1.2432,0 -2.09456,0.2528 -2.55488,0.76 -0.4144,0.4608 -0.6208,1.3584 -0.6208,2.69296 0,2.07168 -0.8288,3.10736 -2.48576,3.10736 -1.65728,0 -2.48592,-1.0352 -2.48592,-3.10736 0,-2.992 0.5984,-5.13264 1.79536,-6.4216 1.2432,-1.3344 3.17632,-2.0024 5.80032,-2.00256 l 23.47712,0 c 1.65712,1.6e-4 2.48576,0.76 2.48576,2.27872 0,0.368 -0.096,0.8976 -0.2768,1.5888 l -15.74352,39.2208 c -0.5984,1.4736 -1.496,2.2096 -2.69296,2.2096" />
        <path
           inkscape:connector-curvature="0"
           id="path4161"
           style="font-size:4.41923475px;font-style:normal;font-variant:normal;font-weight:600;font-stretch:normal;text-align:start;line-height:125%;letter-spacing:0px;word-spacing:0px;writing-mode:lr-tb;text-anchor:start;fill:#4d4d4d;fill-opacity:1;stroke:none;font-family:Jura;-inkscape-font-specification:Jura Semi-Bold"
           d="m 331.65084,238.77254 -3.17632,0 0,8.83856 c 0,1.79536 -0.8288,2.69296 -2.48576,2.69296 -0.7824,0 -1.4496,-0.2304 -2.00256,-0.6912 -0.5056,-0.4608 -0.76,-1.128 -0.76,-2.0024 l 0,-8.83856 -23.75344,0 0,-5.17872 23.20112,-28.03456 5.80016,0 0,28.24176 3.17632,0 c 1.93344,0 2.90016,0.8288 2.90016,2.48576 0,1.65728 -0.9664,2.48592 -2.90016,2.48576 m -8.42416,-4.97152 0,-21.95808 -18.0912,21.95808 18.0912,0" />
        <path
           inkscape:connector-curvature="0"
           id="path4163"
           style="font-size:4.41923475px;font-style:normal;font-variant:normal;font-weight:600;font-stretch:normal;text-align:start;line-height:125%;letter-spacing:0px;word-spacing:0px;writing-mode:lr-tb;text-anchor:start;fill:#4d4d4d;fill-opacity:1;stroke:none;font-family:Jura;-inkscape-font-specification:Jura Semi-Bold"
           d="m 380.95292,218.33366 c 0,2.30176 -0.9904,4.37328 -2.96912,6.21456 -1.93344,1.84128 -4.3272,3.45248 -7.18128,4.8336 -2.80816,1.3344 -5.66224,2.69296 -8.56224,4.07392 -2.85408,1.3808 -5.36304,3.08432 -7.52656,5.10976 -2.1176,1.97936 -3.29136,4.18896 -3.5216,6.6288 l 26.6536,0 c 2.07136,0 3.1072,0.8512 3.1072,2.55488 0,1.6112 -1.0352,2.4168 -3.1072,2.4168 l -31.62512,0 0,-3.93584 c -1.6e-4,-3.2224 1.0128,-6.07648 3.03808,-8.5624 2.07152,-2.53184 4.55744,-4.55728 7.4576,-6.07632 2.94608,-1.5184 5.86912,-2.90016 8.76928,-4.14304 2.90016,-1.2896 5.36288,-2.66992 7.38848,-4.14304 2.07152,-1.4736 3.1072,-3.08432 3.1072,-4.8336 0,-3.45248 -0.76,-5.63904 -2.27856,-6.55984 -1.5184,-0.92 -4.48832,-1.3808 -8.90752,-1.3808 l -10.5648,0 c -1.1968,0 -2.0024,0.2304 -2.4168,0.6912 -0.4144,0.4608 -0.6208,1.3808 -0.6208,2.76192 0,2.07168 -0.8512,3.10736 -2.55488,3.10736 -1.6112,0 -2.4168,-1.0352 -2.41664,-3.10736 -1.6e-4,-3.03808 0.5984,-5.20176 1.7952,-6.49072 1.1968,-1.2896 3.10736,-1.93328 5.7312,-1.93344 l 11.04816,0 c 5.57008,1.6e-4 9.644,0.8752 12.22192,2.624 2.62384,1.74928 3.93584,5.1328 3.93584,10.1504" />
        <path
           inkscape:connector-curvature="0"
           id="path4165"
           style="font-size:4.41923475px;font-style:normal;font-variant:normal;font-weight:600;font-stretch:normal;text-align:start;line-height:125%;letter-spacing:0px;word-spacing:0px;writing-mode:lr-tb;text-anchor:start;fill:#4d4d4d;fill-opacity:1;stroke:none;font-family:Jura;-inkscape-font-specification:Jura Semi-Bold"
           d="m 413.2686,210.53094 -6.35264,0 c -2.34768,0 -4.48832,0.368 -6.42176,1.1056 -1.88736,0.736 -2.83104,1.5648 -2.83104,2.48576 0,1.97952 -0.8288,2.96928 -2.48576,2.96928 -1.65728,0 -2.48592,-1.0352 -2.48592,-3.10736 0,-2.3016 1.2432,-4.28112 3.7288,-5.93824 2.48576,-1.65728 5.8232,-2.48576 10.01232,-2.48592 l 5.9384,0 c 5.524,1.6e-4 9.41376,1.0352 11.66944,3.10736 2.30176,2.02544 3.45248,5.45504 3.45264,10.28848 -1.6e-4,1.5184 -0.8288,3.06128 -2.48592,4.6264 -1.65728,1.5648 -3.42944,2.808 -5.3168,3.7288 1.84128,0.9664 3.59056,2.39376 5.24784,4.28112 1.7032,1.88736 2.55472,3.6136 2.55488,5.17872 -1.6e-4,4.8336 -1.1504,8.28608 -3.45264,10.3576 -2.25568,2.02544 -6.14544,3.03824 -11.66944,3.03824 l -5.9384,0 c -4.18912,0 -7.52656,-0.8288 -10.01232,-2.48592 -2.48576,-1.65712 -3.7288,-3.6136 -3.7288,-5.86928 0,-2.11744 0.8288,-3.17632 2.48592,-3.17632 1.65712,0 2.48576,0.9904 2.48576,2.96928 0,0.92 0.944,1.74928 2.83104,2.48576 1.88736,0.736 4.028,1.1056 6.42176,1.1056 l 6.35264,0 c 3.59056,0 6.0304,-0.5984 7.31936,-1.79536 1.3344,-1.2432 2.0024,-3.06112 2.0024,-5.45488 0,-2.07152 -1.4736,-3.93584 -4.4192,-5.59312 -2.90016,-1.65728 -5.70816,-2.48576 -8.42416,-2.48592 -2.43984,1.6e-4 -3.65968,-0.8512 -3.65968,-2.55472 0,-1.65728 1.2192,-2.48592 3.65968,-2.48592 2.99216,0 5.86928,-0.6912 8.63136,-2.07152 2.808,-1.3808 4.212,-3.08416 4.212,-5.10976 0,-2.34768 -0.6672,-4.12 -2.0024,-5.3168 -1.2896,-1.1968 -3.7288,-1.79536 -7.31936,-1.79536" />
        <path
           inkscape:connector-curvature="0"
           id="path4167"
           style="font-size:4.41923475px;font-style:normal;font-variant:normal;font-weight:600;font-stretch:normal;text-align:start;line-height:125%;letter-spacing:0px;word-spacing:0px;writing-mode:lr-tb;text-anchor:start;fill:#4d4d4d;fill-opacity:1;stroke:none;font-family:Jura;-inkscape-font-specification:Jura Semi-Bold"
           d="m 441.7174,240.08454 c 0.368,0 1.1968,0.4608 2.48592,1.3808 1.288,0.8752 2.99216,1.77216 5.1096,2.69296 2.1176,0.8752 4.37328,1.312 6.76704,1.312 4.14304,0 7.25024,-1.0128 9.32176,-3.03824 2.07152,-2.07136 3.10736,-4.97152 3.10736,-8.70032 0,-3.4064 -1.128,-5.91536 -3.38352,-7.52656 -2.2096,-1.61104 -4.58032,-2.41664 -7.11216,-2.41664 l -18.22944,0 0.6208,-9.0456 c 0.2304,-3.40656 1.0128,-5.77728 2.34784,-7.11232 1.3344,-1.3808 3.45248,-2.07136 6.35264,-2.07152 l 18.57456,0 c 1.93344,1.6e-4 2.90016,0.8512 2.90016,2.55488 0,0.6448 -0.2304,1.2208 -0.6912,1.72624 -0.4144,0.4608 -1.1504,0.6912 -2.2096,0.6912 l -19.12704,0 c -0.9664,0 -1.68016,0.2304 -2.14048,0.6912 -0.4608,0.4144 -0.76,1.2432 -0.8976,2.48576 l -0.4144,5.10976 12.29104,0 c 4.28112,0 8.0328,1.3584 11.2552,4.07392 3.22224,2.67008 4.83344,6.28368 4.8336,10.84096 -1.6e-4,5.20192 -1.61136,9.29888 -4.8336,12.29104 -3.17632,2.94608 -7.36544,4.4192 -12.5672,4.4192 -3.26848,0 -6.88208,-0.8512 -10.84096,-2.55488 -3.9128,-1.7032 -5.86928,-3.47552 -5.86928,-5.3168 0,-0.6912 0.2528,-1.2656 0.76,-1.7264 0.5072,-0.5056 1.0352,-0.76 1.5888,-0.76" />
        <path
           inkscape:connector-curvature="0"
           id="path4169"
           style="font-size:4.41923475px;font-style:normal;font-variant:normal;font-weight:600;font-stretch:normal;text-align:start;line-height:125%;letter-spacing:0px;word-spacing:0px;writing-mode:lr-tb;text-anchor:start;fill:#4d4d4d;fill-opacity:1;stroke:none;font-family:Jura;-inkscape-font-specification:Jura Semi-Bold"
           d="m 520.57308,218.33366 c 0,2.30176 -0.9904,4.37328 -2.96912,6.21456 -1.93344,1.84128 -4.3272,3.45248 -7.18128,4.8336 -2.808,1.3344 -5.66208,2.69296 -8.56224,4.07392 -2.85408,1.3808 -5.36288,3.08432 -7.52656,5.10976 -2.11744,1.97936 -3.29136,4.18896 -3.5216,6.6288 l 26.6536,0 c 2.07152,0 3.1072,0.8512 3.1072,2.55488 0,1.6112 -1.0352,2.4168 -3.1072,2.4168 l -31.62512,0 0,-3.93584 c 0,-3.2224 1.0128,-6.07648 3.03824,-8.5624 2.07152,-2.53184 4.55728,-4.55728 7.45744,-6.07632 2.94608,-1.5184 5.86928,-2.90016 8.76944,-4.14304 2.9,-1.2896 5.36288,-2.66992 7.38832,-4.14304 2.07152,-1.4736 3.1072,-3.08432 3.10736,-4.8336 -1.6e-4,-3.45248 -0.76,-5.63904 -2.27872,-6.55984 -1.5184,-0.92 -4.48832,-1.3808 -8.90752,-1.3808 l -10.5648,0 c -1.1968,0 -2.0024,0.2304 -2.41664,0.6912 -0.4144,0.4608 -0.6208,1.3808 -0.6208,2.76192 0,2.07168 -0.8512,3.10736 -2.55472,3.10736 -1.6112,0 -2.4168,-1.0352 -2.4168,-3.10736 0,-3.03808 0.5984,-5.20176 1.7952,-6.49072 1.1968,-1.2896 3.10736,-1.93328 5.7312,-1.93344 l 11.04816,0 c 5.57008,1.6e-4 9.644,0.8752 12.22192,2.624 2.62384,1.74928 3.93584,5.1328 3.93584,10.1504" />
        <path
           inkscape:connector-curvature="0"
           id="path4171"
           style="font-size:4.41923475px;font-style:normal;font-variant:normal;font-weight:bold;font-stretch:normal;text-align:start;line-height:125%;letter-spacing:0px;word-spacing:0px;writing-mode:lr-tb;text-anchor:start;fill:#1a1a1a;fill-opacity:1;stroke:none;font-family:News Cycle;-inkscape-font-specification:News Cycle Bold"
           d="m 535.55708,210.53094 -0.552,0.4832 c -0.7824,0.736 -1.6112,1.1056 -2.48592,1.1056 -0.8288,0 -1.4272,-0.2304 -1.7952,-0.6912 -0.368,-0.4608 -0.552,-0.92 -0.552,-1.3808 0,-0.7824 0.4144,-1.5648 1.2432,-2.34768 l 4.21216,-4.14304 c 0.7824,-0.6896 1.5648,-1.0352 2.34768,-1.0352 0.552,1.6e-4 1.1056,0.2304 1.65728,0.6912 0.5984,0.4144 0.8976,1.0592 0.8976,1.93344 l 0,42.39696 c 0,1.84144 -0.8288,2.76208 -2.48576,2.76208 -1.65728,0 -2.48592,-0.92 -2.48592,-2.76208 l 0,-37.01104" />
        <path
           inkscape:connector-curvature="0"
           id="path4173"
           style="font-size:4.41923475px;font-style:normal;font-variant:normal;font-weight:bold;font-stretch:normal;text-align:start;line-height:125%;letter-spacing:0px;word-spacing:0px;writing-mode:lr-tb;text-anchor:start;fill:#1a1a1a;fill-opacity:1;stroke:none;font-family:News Cycle;-inkscape-font-specification:News Cycle Bold"
           d="m 575.26124,210.53094 -6.35264,0 c -2.34784,0 -4.48832,0.368 -6.42176,1.1056 -1.88736,0.736 -2.83104,1.5648 -2.83104,2.48576 0,1.97952 -0.8288,2.96928 -2.48592,2.96928 -1.65712,0 -2.48576,-1.0352 -2.48576,-3.10736 0,-2.3016 1.2432,-4.28112 3.7288,-5.93824 2.48576,-1.65728 5.8232,-2.48576 10.01232,-2.48592 l 5.93824,0 c 5.524,1.6e-4 9.41392,1.0352 11.6696,3.10736 2.3016,2.02544 3.45248,5.45504 3.45248,10.28848 0,1.5184 -0.8288,3.06128 -2.48576,4.6264 -1.65728,1.5648 -3.4296,2.808 -5.31696,3.7288 1.84128,0.9664 3.59056,2.39376 5.24784,4.28112 1.7032,1.88736 2.55488,3.6136 2.55488,5.17872 0,4.8336 -1.1504,8.28608 -3.45248,10.3576 -2.25568,2.02544 -6.1456,3.03824 -11.6696,3.03824 l -5.93824,0 c -4.18912,0 -7.52656,-0.8288 -10.01232,-2.48592 -2.48592,-1.65712 -3.7288,-3.6136 -3.7288,-5.86928 0,-2.11744 0.8288,-3.17632 2.48576,-3.17632 1.65728,0 2.48592,0.9904 2.48592,2.96928 0,0.92 0.944,1.74928 2.83104,2.48576 1.88736,0.736 4.02784,1.1056 6.42176,1.1056 l 6.35264,0 c 3.59056,0 6.03024,-0.5984 7.31936,-1.79536 1.3344,-1.2432 2.0024,-3.06112 2.0024,-5.45488 0,-2.07152 -1.4736,-3.93584 -4.4192,-5.59312 -2.90016,-1.65728 -5.70832,-2.48576 -8.42416,-2.48592 -2.43984,1.6e-4 -3.65968,-0.8512 -3.65968,-2.55472 0,-1.65728 1.2192,-2.48592 3.65968,-2.48592 2.99216,0 5.86928,-0.6912 8.6312,-2.07152 2.80816,-1.3808 4.21216,-3.08416 4.21216,-5.10976 0,-2.34768 -0.6672,-4.12 -2.0024,-5.3168 -1.2896,-1.1968 -3.7288,-1.79536 -7.31936,-1.79536" />
      </g>
      <g
         id="g5525">
        <g
           id="g5504"
           transform="matrix(0.56531371,0,0,0.56531371,164.44724,607.20733)">
          <path
             d="m -154.32324,105.1135 0,-6.5056 20.8392,0 0,6.5056 -20.8392,0"
             id="path3989-8"
             inkscape:connector-curvature="0"
             style="font-size:9.99791336px;font-style:normal;font-variant:normal;font-weight:bold;font-stretch:normal;text-align:start;line-height:125%;letter-spacing:0px;word-spacing:0px;writing-mode:lr-tb;text-anchor:start;fill:#000000;fill-opacity:1;stroke:none;font-family:News Cycle;-inkscape-font-specification:News Cycle Bold" />
          <path
             d="m -112.64468,105.1135 0,-6.5056 20.83936,0 0,6.5056 -20.83936,0"
             id="path3991-3"
             inkscape:connector-curvature="0"
             style="font-size:9.99791336px;font-style:normal;font-variant:normal;font-weight:bold;font-stretch:normal;text-align:start;line-height:125%;letter-spacing:0px;word-spacing:0px;writing-mode:lr-tb;text-anchor:start;fill:#000000;fill-opacity:1;stroke:none;font-family:News Cycle;-inkscape-font-specification:News Cycle Bold" />
          <path
             d="m -29.2874,105.1135 0,-6.5056 20.8392,0 0,6.5056 -20.8392,0"
             id="path3993-4"
             inkscape:connector-curvature="0"
             style="font-size:9.99791336px;font-style:normal;font-variant:normal;font-weight:bold;font-stretch:normal;text-align:start;line-height:125%;letter-spacing:0px;word-spacing:0px;writing-mode:lr-tb;text-anchor:start;fill:#000000;fill-opacity:1;stroke:none;font-family:News Cycle;-inkscape-font-specification:News Cycle Bold" />
          <path
             d="m -8.4482,105.1135 0,-6.5056 20.83936,0 0,6.5056 -20.83936,0"
             id="path3995-9"
             inkscape:connector-curvature="0"
             style="font-size:9.99791336px;font-style:normal;font-variant:normal;font-weight:bold;font-stretch:normal;text-align:start;line-height:125%;letter-spacing:0px;word-spacing:0px;writing-mode:lr-tb;text-anchor:start;fill:#000000;fill-opacity:1;stroke:none;font-family:News Cycle;-inkscape-font-specification:News Cycle Bold" />
          <path
             d="m 12.39116,105.1135 0,-6.5056 20.83936,0 0,6.5056 -20.83936,0"
             id="path3997-4"
             inkscape:connector-curvature="0"
             style="font-size:9.99791336px;font-style:normal;font-variant:normal;font-weight:bold;font-stretch:normal;text-align:start;line-height:125%;letter-spacing:0px;word-spacing:0px;writing-mode:lr-tb;text-anchor:start;fill:#000000;fill-opacity:1;stroke:none;font-family:News Cycle;-inkscape-font-specification:News Cycle Bold" />
          <path
             d="m 33.23052,105.1135 0,-6.5056 20.8392,0 0,6.5056 -20.8392,0"
             id="path3999-5"
             inkscape:connector-curvature="0"
             style="font-size:9.99791336px;font-style:normal;font-variant:normal;font-weight:bold;font-stretch:normal;text-align:start;line-height:125%;letter-spacing:0px;word-spacing:0px;writing-mode:lr-tb;text-anchor:start;fill:#000000;fill-opacity:1;stroke:none;font-family:News Cycle;-inkscape-font-specification:News Cycle Bold" />
          <path
             d="m 74.90908,105.1135 0,-6.5056 20.83936,0 0,6.5056 -20.83936,0"
             id="path4001-9"
             inkscape:connector-curvature="0"
             style="font-size:9.99791336px;font-style:normal;font-variant:normal;font-weight:bold;font-stretch:normal;text-align:start;line-height:125%;letter-spacing:0px;word-spacing:0px;writing-mode:lr-tb;text-anchor:start;fill:#000000;fill-opacity:1;stroke:none;font-family:News Cycle;-inkscape-font-specification:News Cycle Bold" />
          <path
             d="m 137.427,105.1135 0,-6.5056 20.83936,0 0,6.5056 -20.83936,0"
             id="path4003-2"
             inkscape:connector-curvature="0"
             style="font-size:9.99791336px;font-style:normal;font-variant:normal;font-weight:bold;font-stretch:normal;text-align:start;line-height:125%;letter-spacing:0px;word-spacing:0px;writing-mode:lr-tb;text-anchor:start;fill:#000000;fill-opacity:1;stroke:none;font-family:News Cycle;-inkscape-font-specification:News Cycle Bold" />
          <path
             d="m 199.94492,105.1135 0,-6.5056 20.83936,0 0,6.5056 -20.83936,0"
             id="path4005-6"
             inkscape:connector-curvature="0"
             style="font-size:9.99791336px;font-style:normal;font-variant:normal;font-weight:bold;font-stretch:normal;text-align:start;line-height:125%;letter-spacing:0px;word-spacing:0px;writing-mode:lr-tb;text-anchor:start;fill:#000000;fill-opacity:1;stroke:none;font-family:News Cycle;-inkscape-font-specification:News Cycle Bold" />
          <path
             d="m 241.62348,105.1135 0,-6.5056 20.83936,0 0,6.5056 -20.83936,0"
             id="path4007-2"
             inkscape:connector-curvature="0"
             style="font-size:9.99791336px;font-style:normal;font-variant:normal;font-weight:bold;font-stretch:normal;text-align:start;line-height:125%;letter-spacing:0px;word-spacing:0px;writing-mode:lr-tb;text-anchor:start;fill:#000000;fill-opacity:1;stroke:none;font-family:News Cycle;-inkscape-font-specification:News Cycle Bold" />
          <path
             d="m 283.3022,105.1135 0,-6.5056 20.8392,0 0,6.5056 -20.8392,0"
             id="path4009-0"
             inkscape:connector-curvature="0"
             style="font-size:9.99791336px;font-style:normal;font-variant:normal;font-weight:bold;font-stretch:normal;text-align:start;line-height:125%;letter-spacing:0px;word-spacing:0px;writing-mode:lr-tb;text-anchor:start;fill:#000000;fill-opacity:1;stroke:none;font-family:News Cycle;-inkscape-font-specification:News Cycle Bold" />
          <path
             d="m 345.82012,105.1135 0,-6.5056 20.83936,0 0,6.5056 -20.83936,0"
             id="path4011-0"
             inkscape:connector-curvature="0"
             style="font-size:9.99791336px;font-style:normal;font-variant:normal;font-weight:bold;font-stretch:normal;text-align:start;line-height:125%;letter-spacing:0px;word-spacing:0px;writing-mode:lr-tb;text-anchor:start;fill:#000000;fill-opacity:1;stroke:none;font-family:News Cycle;-inkscape-font-specification:News Cycle Bold" />
          <path
             d="m 408.33804,105.1135 0,-6.5056 20.8392,0 0,6.5056 -20.8392,0"
             id="path4013-7"
             inkscape:connector-curvature="0"
             style="font-size:9.99791336px;font-style:normal;font-variant:normal;font-weight:bold;font-stretch:normal;text-align:start;line-height:125%;letter-spacing:0px;word-spacing:0px;writing-mode:lr-tb;text-anchor:start;fill:#000000;fill-opacity:1;stroke:none;font-family:News Cycle;-inkscape-font-specification:News Cycle Bold" />
          <path
             d="m 429.1774,105.1135 0,-6.5056 20.8392,0 0,6.5056 -20.8392,0"
             id="path4015-1"
             inkscape:connector-curvature="0"
             style="font-size:9.99791336px;font-style:normal;font-variant:normal;font-weight:bold;font-stretch:normal;text-align:start;line-height:125%;letter-spacing:0px;word-spacing:0px;writing-mode:lr-tb;text-anchor:start;fill:#000000;fill-opacity:1;stroke:none;font-family:News Cycle;-inkscape-font-specification:News Cycle Bold" />
          <path
             d="m 470.85596,105.1135 0,-6.5056 20.83936,0 0,6.5056 -20.83936,0"
             id="path4017-2"
             inkscape:connector-curvature="0"
             style="font-size:9.99791336px;font-style:normal;font-variant:normal;font-weight:bold;font-stretch:normal;text-align:start;line-height:125%;letter-spacing:0px;word-spacing:0px;writing-mode:lr-tb;text-anchor:start;fill:#000000;fill-opacity:1;stroke:none;font-family:News Cycle;-inkscape-font-specification:News Cycle Bold" />
        </g>
        <g
           id="g5480"
           transform="translate(291.13108,567.36175)">
          <path
             d="m -223.86724,166.80662 c 0,8.02592 1.75216,13.1128 5.25648,15.26064 3.50432,2.14784 10.28672,3.2216 20.34752,3.2216 5.08688,0 7.6304,1.92176 7.6304,5.76528 0,4.29552 -2.54352,6.44336 -7.6304,6.44336 -12.77376,0 -22.26928,-2.09136 -28.48656,-6.27392 -6.21728,-4.29552 -9.32592,-12.26496 -9.32592,-23.90832 l 0,-36.6256 c -3.50432,-0.5648 -5.25648,-2.54336 -5.25648,-5.93472 0,-2.93904 1.75216,-4.6912 5.25648,-5.25648 l 0,-16.10848 c 0,-5.19984 1.9216,-7.79984 5.76512,-7.8 4.29552,1.6e-4 6.44336,2.60016 6.44336,7.8 l 0,15.93888 21.70416,0 c 5.19984,1.6e-4 7.79984,2.14784 7.79984,6.44336 0,3.84352 -2.6,5.76528 -7.79984,5.76528 l -21.70416,0 0,35.26912"
             style="font-size:10.85203743px;font-style:normal;font-variant:normal;font-weight:bold;font-stretch:normal;text-align:start;line-height:125%;letter-spacing:0px;word-spacing:0px;writing-mode:lr-tb;text-anchor:start;fill:#4d4d4d;fill-opacity:1;stroke:none;font-family:News Cycle;-inkscape-font-specification:News Cycle Bold"
             id="path4176"
             inkscape:connector-curvature="0" />
          <path
             d="m -118.22948,197.4975 -4.91728,0 c -15.26064,0 -26.22576,-2.03472 -32.8952,-6.10432 -6.6696,-4.18256 -10.00432,-12.20848 -10.00432,-24.07792 l 0,-17.80416 c 0,-11.86928 3.33472,-19.83888 10.00432,-23.90832 6.66944,-4.18256 17.63456,-6.27376 32.8952,-6.27392 l 4.91728,0 c 15.14768,1.6e-4 26.05616,2.09136 32.72576,6.27392 6.66928,4.06944 10.00416,12.03904 10.00416,23.90832 l 0,17.80416 c 0,11.86944 -3.33488,19.89536 -10.00416,24.07792 -6.6696,4.0696 -17.57808,6.10432 -32.72576,6.10432 m -4.91728,-12.20864 4.91728,0 c 12.54768,0 20.7432,-1.0176 24.58672,-3.052 3.95632,-2.14784 5.93456,-7.2912 5.93472,-15.43024 l 0,-16.78688 c -1.6e-4,-8.13888 -1.9784,-13.22576 -5.93472,-15.26064 -3.84352,-2.14768 -12.03904,-3.2216 -24.58672,-3.2216 l -4.91728,0 c -12.6608,0 -20.96928,1.0736 -24.92576,3.2216 -3.84352,2.03488 -5.76512,7.12176 -5.76512,15.26064 l 0,16.78688 c 0,8.13904 1.9216,13.2824 5.76512,15.43024 3.95648,2.03472 12.26496,3.052 24.92576,3.052"
             style="font-size:10.85203743px;font-style:normal;font-variant:normal;font-weight:bold;font-stretch:normal;text-align:start;line-height:125%;letter-spacing:0px;word-spacing:0px;writing-mode:lr-tb;text-anchor:start;fill:#4d4d4d;fill-opacity:1;stroke:none;font-family:News Cycle;-inkscape-font-specification:News Cycle Bold"
             id="path4178"
             inkscape:connector-curvature="0" />
          <path
             d="m 31.66428,150.01974 c 0,-8.13888 -1.97824,-13.22576 -5.93456,-15.26064 -3.84352,-2.14768 -12.0392,-3.2216 -24.58672,-3.2216 l -4.91728,0 c -11.5304,0 -19.55632,2.4304 -24.07808,7.2912 -4.40864,4.74768 -6.61296,11.1912 -6.61296,19.33008 l 0,27.13008 36.11696,0 c 12.3216,0 20.404,-1.0176 24.24752,-3.052 3.84336,-2.14784 5.76512,-7.2912 5.76512,-15.43024 l 0,-16.78688 m 12.20864,17.29552 c -1.6e-4,11.86944 -3.33488,19.89536 -10.00432,24.07792 -6.55648,4.0696 -17.29552,6.10432 -32.21696,6.10432 l -36.11696,0 0,23.23008 c 0,5.08688 -2.14768,7.6304 -6.44336,7.6304 -3.84336,0 -5.76512,-2.54352 -5.76512,-7.6304 l 0,-95.464 c 0,-4.74768 2.03472,-7.1216 6.10432,-7.1216 4.06944,0 6.10416,2.54352 6.10416,7.63024 l 0,2.03488 c 7.00864,-5.65216 17.23888,-8.47808 30.69104,-8.47824 l 4.91728,0 c 15.14752,1.6e-4 26.05616,2.09136 32.7256,6.27392 6.66944,4.06944 10.00416,12.03904 10.00432,23.90832 l 0,17.80416"
             style="font-size:10.85203743px;font-style:normal;font-variant:normal;font-weight:bold;font-stretch:normal;text-align:start;line-height:125%;letter-spacing:0px;word-spacing:0px;writing-mode:lr-tb;text-anchor:start;fill:#4d4d4d;fill-opacity:1;stroke:none;font-family:News Cycle;-inkscape-font-specification:News Cycle Bold"
             id="path4180"
             inkscape:connector-curvature="0" />
          <path
             d="m 115.59804,145.7807 23.23024,0 0,-7.1216 c -1.6e-4,-2.82608 -0.5088,-4.6912 -1.5264,-5.59568 -1.0176,-1.0176 -3.05232,-1.5264 -6.10432,-1.5264 l -23.90832,0 c -8.81744,0 -14.75216,0.5088 -17.80416,1.5264 -3.05216,0.904 -4.57824,2.60016 -4.57824,5.08704 0,5.08688 -2.09136,7.63024 -6.27376,7.63024 -3.95648,0 -5.93472,-2.54336 -5.93472,-7.63024 0,-7.1216 2.82592,-12.03904 8.47808,-14.752 5.76512,-2.71296 14.07376,-4.06944 24.92576,-4.0696 l 26.28224,0 c 7.23472,1.6e-4 12.152,1.69568 14.752,5.08688 2.6,3.39136 3.89984,9.04352 3.9,16.95632 l 0,50.19072 c -1.6e-4,4.74768 -2.03488,7.1216 -6.10432,7.1216 -4.0696,0 -6.10432,-2.54336 -6.10416,-7.63024 l 0,-2.03488 c -6.78272,5.65216 -16.95648,8.47824 -30.52144,8.47824 l -15.76928,0 c -5.76528,0 -10.51296,-1.97824 -14.24336,-5.93472 -3.7304,-3.95648 -5.59552,-9.26944 -5.59552,-15.93888 0,-11.5304 3.3912,-19.38672 10.17376,-23.56928 6.89552,-4.18256 17.804,-6.27392 32.7256,-6.27392 m 23.23024,12.20864 -23.23024,0 c -12.66064,0 -20.96928,1.0736 -24.92576,3.2216 -3.84336,2.03488 -5.76512,7.12176 -5.76512,15.26064 0,2.37392 0.848,4.46528 2.54352,6.27392 1.69552,1.69568 3.3912,2.54336 5.08688,2.54336 l 15.76928,0 c 6.55648,0 12.03888,-0.848 16.44768,-2.54336 4.40848,-1.69568 7.51712,-4.0696 9.32592,-7.1216 1.9216,-3.05216 3.16512,-5.87824 3.7304,-8.47824 0.6784,-2.6 1.0176,-5.652 1.0176,-9.15632"
             style="font-size:10.85203743px;font-style:normal;font-variant:normal;font-weight:bold;font-stretch:normal;text-align:start;line-height:125%;letter-spacing:0px;word-spacing:0px;writing-mode:lr-tb;text-anchor:start;fill:#4d4d4d;fill-opacity:1;stroke:none;font-family:News Cycle;-inkscape-font-specification:News Cycle Bold"
             id="path4182"
             inkscape:connector-curvature="0" />
        </g>
      </g>
      <g
         transform="matrix(0.95970111,0,0,0.95970111,-121.87743,691.59323)"
         id="g5486">
        <path
           inkscape:connector-curvature="0"
           id="path4184"
           style="font-size:10.85203743px;font-style:normal;font-variant:normal;font-weight:600;font-stretch:normal;text-align:start;line-height:125%;letter-spacing:0px;word-spacing:0px;writing-mode:lr-tb;text-anchor:start;fill:#1a1a1a;fill-opacity:1;stroke:none;font-family:Jura;-inkscape-font-specification:Jura Semi-Bold"
           d="m 222.76204,131.5375 c -11.41744,0 -19.38688,2.48688 -23.90848,7.46064 -4.52176,4.86096 -6.78256,11.41728 -6.78256,19.66944 l 0,32.8952 c 0,4.74768 -2.03472,7.1216 -6.10416,7.1216 -4.0696,0 -6.10432,-2.37392 -6.10432,-7.1216 l 0,-95.2944 c 0,-5.19984 1.92176,-7.79984 5.76512,-7.8 4.29552,1.6e-4 6.44336,2.60016 6.44336,7.8 l 0,31.53872 c 7.00864,-5.65216 17.23888,-8.47808 30.69104,-8.47824 l 4.91728,0 c 15.14752,1.6e-4 26.056,2.09136 32.7256,6.27392 6.66944,4.06944 10.00416,12.03904 10.00432,23.90832 l 0,42.05168 c -1.6e-4,4.74768 -1.9784,7.1216 -5.93472,7.1216 -4.18272,0 -6.27392,-2.37392 -6.27392,-7.1216 l 0,-41.54304 c 0,-8.13888 -1.97824,-13.22576 -5.93472,-15.26064 -3.84352,-2.14768 -12.03904,-3.2216 -24.58656,-3.2216 l -4.91728,0" />
        <path
           inkscape:connector-curvature="0"
           id="path4186"
           style="font-size:10.85203743px;font-style:normal;font-variant:normal;font-weight:600;font-stretch:normal;text-align:start;line-height:125%;letter-spacing:0px;word-spacing:0px;writing-mode:lr-tb;text-anchor:start;fill:#1a1a1a;fill-opacity:1;stroke:none;font-family:Jura;-inkscape-font-specification:Jura Semi-Bold"
           d="m 342.13436,145.7807 23.23008,0 0,-7.1216 c 0,-2.82608 -0.5088,-4.6912 -1.5264,-5.59568 -1.0176,-1.0176 -3.05216,-1.5264 -6.10416,-1.5264 l -23.90848,0 c -8.81728,0 -14.752,0.5088 -17.80416,1.5264 -3.05216,0.904 -4.57824,2.60016 -4.57808,5.08704 -1.6e-4,5.08688 -2.09136,7.63024 -6.27392,7.63024 -3.95648,0 -5.93472,-2.54336 -5.93472,-7.63024 0,-7.1216 2.82608,-12.03904 8.47824,-14.752 5.76512,-2.71296 14.0736,-4.06944 24.92576,-4.0696 l 26.28224,0 c 7.23456,1.6e-4 12.152,1.69568 14.752,5.08688 2.59984,3.39136 3.89984,9.04352 3.9,16.95632 l 0,50.19072 c -1.6e-4,4.74768 -2.03488,7.1216 -6.10432,7.1216 -4.0696,0 -6.10432,-2.54336 -6.10432,-7.63024 l 0,-2.03488 c -6.78256,5.65216 -16.95632,8.47824 -30.52128,8.47824 l -15.76944,0 c -5.76512,0 -10.51296,-1.97824 -14.2432,-5.93472 -3.7304,-3.95648 -5.59568,-9.26944 -5.59568,-15.93888 0,-11.5304 3.39136,-19.38672 10.17376,-23.56928 6.89552,-4.18256 17.80416,-6.27392 32.72576,-6.27392 m 23.23008,12.20864 -23.23008,0 c -12.6608,0 -20.96928,1.0736 -24.92576,3.2216 -3.84352,2.03488 -5.76528,7.12176 -5.76512,15.26064 -1.6e-4,2.37392 0.848,4.46528 2.54336,6.27392 1.69568,1.69568 3.3912,2.54336 5.08688,2.54336 l 15.76944,0 c 6.55632,0 12.03888,-0.848 16.44752,-2.54336 4.40864,-1.69568 7.51728,-4.0696 9.32608,-7.1216 1.9216,-3.05216 3.16512,-5.87824 3.7304,-8.47824 0.6784,-2.6 1.0176,-5.652 1.0176,-9.15632" />
        <path
           inkscape:connector-curvature="0"
           id="path4188"
           style="font-size:10.85203743px;font-style:normal;font-variant:normal;font-weight:600;font-stretch:normal;text-align:start;line-height:125%;letter-spacing:0px;word-spacing:0px;writing-mode:lr-tb;text-anchor:start;fill:#1a1a1a;fill-opacity:1;stroke:none;font-family:Jura;-inkscape-font-specification:Jura Semi-Bold"
           d="m 473.20668,197.4975 -23.90848,0 c -15.26064,0 -26.22576,-2.03472 -32.8952,-6.10432 -6.66944,-4.18256 -10.00432,-12.20848 -10.00432,-24.07792 l 0,-17.80416 c 0,-11.86928 3.33488,-19.83888 10.00432,-23.90832 6.66944,-4.18256 17.63456,-6.27376 32.8952,-6.27392 l 23.90848,0 c 7.34752,1.6e-4 12.26496,1.92176 14.752,5.76512 2.59984,3.73056 3.89984,8.70432 3.89984,14.9216 0,5.08688 -2.03488,7.6304 -6.10416,7.6304 -1.5824,0 -2.99584,-0.5648 -4.2392,-1.69568 -1.2432,-1.1312 -1.86528,-2.99552 -1.86512,-5.59552 -1.6e-4,-3.3912 -0.5088,-5.70864 -1.5264,-6.95216 -1.0176,-1.2432 -3.05216,-1.86512 -6.10432,-1.86512 l -22.72144,0 c -12.6608,0 -20.96928,1.0736 -24.92576,3.2216 -3.84352,2.03488 -5.76512,7.12176 -5.76512,15.26064 l 0,16.78688 c 0,8.13904 1.9216,13.2824 5.76512,15.43024 3.95648,2.03472 12.26496,3.052 24.92576,3.052 l 22.72144,0 c 3.05216,0 5.08688,-0.6208 6.10432,-1.86512 1.0176,-1.2432 1.5264,-3.5608 1.5264,-6.95216 -1.6e-4,-2.59984 0.6208,-4.46512 1.86512,-5.59552 1.2432,-1.1312 2.65648,-1.69568 4.2392,-1.69568 4.06928,0 6.10416,2.6 6.10416,7.8 0,6.21728 -1.2992,11.1912 -3.89984,14.92144 -2.48704,3.7304 -7.40448,5.59568 -14.752,5.59568" />
        <path
           inkscape:connector-curvature="0"
           id="path4190"
           style="font-size:10.85203743px;font-style:normal;font-variant:normal;font-weight:600;font-stretch:normal;text-align:start;line-height:125%;letter-spacing:0px;word-spacing:0px;writing-mode:lr-tb;text-anchor:start;fill:#1a1a1a;fill-opacity:1;stroke:none;font-family:Jura;-inkscape-font-specification:Jura Semi-Bold"
           d="m 589.69644,192.91926 c 0,1.3568 -0.5648,2.65648 -1.69568,3.9 -1.1312,1.1312 -2.48688,1.69552 -4.06944,1.69552 -1.69568,0 -3.44784,-0.7904 -5.25648,-2.37376 l -42.56032,-37.81264 -3.22176,3.22176 0,30.01264 c 0,4.74768 -2.0912,7.1216 -6.27376,7.1216 -3.95648,0 -5.93472,-2.20432 -5.93472,-6.61296 l 0,-96.31184 c 0,-2.59984 0.6224,-4.46496 1.86512,-5.59552 1.2432,-1.1312 2.65648,-1.69552 4.2392,-1.69568 1.5824,1.6e-4 2.99552,0.5648 4.23904,1.69568 1.2432,1.1312 1.86512,2.99568 1.86512,5.59552 l 0,53.92112 33.2344,-28.82576 c 1.80864,-1.5824 3.61728,-2.37376 5.42608,-2.37392 1.4688,1.6e-4 2.82592,0.5648 4.06944,1.69568 1.2432,1.1312 1.86512,2.48704 1.86528,4.06944 -1.6e-4,1.92192 -0.904,3.56096 -2.71312,4.91744 l -29.67344,23.73872 42.22112,34.93008 c 1.5824,1.1312 2.37392,2.82608 2.37392,5.08688" />
      </g>
    </g>
  </g>
</svg>
