<?xml version="1.0" encoding="UTF-8" standalone="no"?>
<!-- Created with Inkscape (http://www.inkscape.org/) -->

<svg
   xmlns:dc="http://purl.org/dc/elements/1.1/"
   xmlns:cc="http://creativecommons.org/ns#"
   xmlns:rdf="http://www.w3.org/1999/02/22-rdf-syntax-ns#"
   xmlns:svg="http://www.w3.org/2000/svg"
   xmlns="http://www.w3.org/2000/svg"
   xmlns:sodipodi="http://sodipodi.sourceforge.net/DTD/sodipodi-0.dtd"
   xmlns:inkscape="http://www.inkscape.org/namespaces/inkscape"
   width="210mm"
   height="297mm"
   id="svg2"
   sodipodi:version="0.32"
   inkscape:version="0.48.3.1 r9886"
   sodipodi:docname="bozetoa.svg"
   inkscape:output_extension="org.inkscape.output.svg.inkscape"
   version="1.1">
  <defs
     id="defs4" />
  <sodipodi:namedview
     id="base"
     pagecolor="#ffffff"
     bordercolor="#666666"
     borderopacity="1.0"
     inkscape:pageopacity="0.0"
     inkscape:pageshadow="2"
     inkscape:zoom="6.9796739"
     inkscape:cx="91.285252"
     inkscape:cy="597.84615"
     inkscape:document-units="px"
     inkscape:current-layer="layer1"
     inkscape:window-width="1398"
     inkscape:window-height="1029"
     inkscape:window-x="0"
     inkscape:window-y="19"
     showgrid="false"
     showguides="true"
     inkscape:guide-bbox="true"
     inkscape:window-maximized="0">
    <sodipodi:guide
       orientation="1,0"
       position="51.502785,589.37393"
       id="guide4350" />
    <sodipodi:guide
       orientation="1,0"
       position="103.51132,586.67657"
       id="guide4352" />
  </sodipodi:namedview>
  <metadata
     id="metadata7">
    <rdf:RDF>
      <cc:Work
         rdf:about="">
        <dc:format>image/svg+xml</dc:format>
        <dc:type
           rdf:resource="http://purl.org/dc/dcmitype/StillImage" />
        <dc:title></dc:title>
      </cc:Work>
    </rdf:RDF>
  </metadata>
  <g
     inkscape:label="Capa 1"
     inkscape:groupmode="layer"
     id="layer1">
    <flowRoot
       xml:space="preserve"
       id="flowRoot3972"
       style="fill:black;stroke:none;stroke-opacity:1;stroke-width:1px;stroke-linejoin:miter;stroke-linecap:butt;fill-opacity:1;font-family:News Cycle;font-style:normal;font-weight:bold;font-size:11px;line-height:125%;letter-spacing:0px;word-spacing:0px;-inkscape-font-specification:News Cycle Bold;font-stretch:normal;font-variant:normal;text-anchor:start;text-align:start;writing-mode:lr"><flowRegion
         id="flowRegion3974"><rect
           id="rect3976"
           width="37.006294"
           height="13.146973"
           x="67.926025"
           y="393.55276" /></flowRegion><flowPara
         id="flowPara3978" /></flowRoot>    <g
       style="font-size:9.99791336px;font-style:normal;font-variant:normal;font-weight:bold;font-stretch:normal;text-align:start;line-height:125%;letter-spacing:0px;word-spacing:0px;writing-mode:lr-tb;text-anchor:start;fill:#000000;fill-opacity:1;stroke:none;font-family:News Cycle;-inkscape-font-specification:News Cycle Bold"
       id="text3980"
       transform="matrix(0.52109143,0,0,0.46015522,35.29507,262.95301)">
      <path
         d="m 41.617908,428.46272 0,-0.88361 2.499479,0 0,0.88361 -2.499479,0"
         id="path3989"
         inkscape:connector-curvature="0"
         style="fill:#000000" />
      <path
         d="m 46.616865,428.46272 0,-0.88361 2.499478,0 0,0.88361 -2.499478,0"
         id="path3991"
         inkscape:connector-curvature="0"
         style="fill:#000000" />
      <path
         d="m 56.614779,428.46272 0,-0.88361 2.499478,0 0,0.88361 -2.499478,0"
         id="path3993"
         inkscape:connector-curvature="0"
         style="fill:#000000" />
      <path
         d="m 59.114258,428.46272 0,-0.88361 2.499478,0 0,0.88361 -2.499478,0"
         id="path3995"
         inkscape:connector-curvature="0"
         style="fill:#000000" />
      <path
         d="m 61.613735,428.46272 0,-0.88361 2.499479,0 0,0.88361 -2.499479,0"
         id="path3997"
         inkscape:connector-curvature="0"
         style="fill:#000000" />
      <path
         d="m 64.113213,428.46272 0,-0.88361 2.499478,0 0,0.88361 -2.499478,0"
         id="path3999"
         inkscape:connector-curvature="0"
         style="fill:#000000" />
      <path
         d="m 69.112171,428.46272 0,-0.88361 2.499479,0 0,0.88361 -2.499479,0"
         id="path4001"
         inkscape:connector-curvature="0"
         style="fill:#000000" />
      <path
         d="m 76.610607,428.46272 0,-0.88361 2.499478,0 0,0.88361 -2.499478,0"
         id="path4003"
         inkscape:connector-curvature="0"
         style="fill:#000000" />
      <path
         d="m 84.109039,428.46272 0,-0.88361 2.499479,0 0,0.88361 -2.499479,0"
         id="path4005"
         inkscape:connector-curvature="0"
         style="fill:#000000" />
      <path
         d="m 89.107998,428.46272 0,-0.88361 2.499478,0 0,0.88361 -2.499478,0"
         id="path4007"
         inkscape:connector-curvature="0"
         style="fill:#000000" />
      <path
         d="m 94.106953,428.46272 0,-0.88361 2.499478,0 0,0.88361 -2.499478,0"
         id="path4009"
         inkscape:connector-curvature="0"
         style="fill:#000000" />
      <path
         d="m 101.60539,428.46272 0,-0.88361 2.49948,0 0,0.88361 -2.49948,0"
         id="path4011"
         inkscape:connector-curvature="0"
         style="fill:#000000" />
      <path
         d="m 109.10382,428.46272 0,-0.88361 2.49948,0 0,0.88361 -2.49948,0"
         id="path4013"
         inkscape:connector-curvature="0"
         style="fill:#000000" />
      <path
         d="m 111.60331,428.46272 0,-0.88361 2.49947,0 0,0.88361 -2.49947,0"
         id="path4015"
         inkscape:connector-curvature="0"
         style="fill:#000000" />
      <path
         d="m 116.60226,428.46272 0,-0.88361 2.49948,0 0,0.88361 -2.49948,0"
         id="path4017"
         inkscape:connector-curvature="0"
         style="fill:#000000" />
    </g>
    <text
       xml:space="preserve"
       style="font-size:4.41923475px;font-style:normal;font-variant:normal;font-weight:bold;font-stretch:normal;text-align:start;line-height:125%;letter-spacing:0px;word-spacing:0px;writing-mode:lr-tb;text-anchor:start;fill:#1a1a1a;fill-opacity:1;stroke:none;font-family:News Cycle;-inkscape-font-specification:News Cycle Bold"
       x="77.770111"
       y="469.15656"
       id="text4019"
       sodipodi:linespacing="125%"><tspan
         sodipodi:role="line"
         id="tspan4021"
         x="77.770111"
         y="469.15656"
         style="font-style:normal;font-variant:normal;font-weight:600;font-stretch:normal;fill:#1a1a1a;font-family:Jura;-inkscape-font-specification:Jura Semi-Bold">13742352<tspan
   style="fill:#1a1a1a"
   id="tspan4027">13</tspan></tspan></text>
    <text
       xml:space="preserve"
       style="font-size:10.85203742999999932px;font-style:normal;font-variant:normal;font-weight:bold;font-stretch:normal;text-align:start;line-height:125%;letter-spacing:0px;word-spacing:0px;writing-mode:lr-tb;text-anchor:start;fill:#1a1a1a;fill-opacity:1;stroke:none;font-family:News Cycle;-inkscape-font-specification:News Cycle Bold"
       x="51.02446"
       y="465.88635"
       id="text4023"
       sodipodi:linespacing="125%"><tspan
         sodipodi:role="line"
         id="tspan4025"
         x="51.02446"
         y="465.88635"
         style="font-style:normal;font-variant:normal;font-weight:600;font-stretch:normal;font-family:Jura;-inkscape-font-specification:Jura Semi-Bold;fill:#1a1a1a"><tspan
   style="fill:#333333"
   id="tspan4039">topa</tspan>hack</tspan></text>
    <g
       id="g4225">
      <path
         d="m 140.88876,448.68105 0,-0.4066 1.30245,0 0,0.4066 -1.30245,0"
         id="path3989-8"
         inkscape:connector-curvature="0"
         style="font-size:9.99791336px;font-style:normal;font-variant:normal;font-weight:bold;font-stretch:normal;text-align:start;line-height:125%;letter-spacing:0px;word-spacing:0px;writing-mode:lr-tb;text-anchor:start;fill:#000000;fill-opacity:1;stroke:none;font-family:News Cycle;-inkscape-font-specification:News Cycle Bold" />
      <path
         d="m 143.49367,448.68105 0,-0.4066 1.30246,0 0,0.4066 -1.30246,0"
         id="path3991-3"
         inkscape:connector-curvature="0"
         style="font-size:9.99791336px;font-style:normal;font-variant:normal;font-weight:bold;font-stretch:normal;text-align:start;line-height:125%;letter-spacing:0px;word-spacing:0px;writing-mode:lr-tb;text-anchor:start;fill:#000000;fill-opacity:1;stroke:none;font-family:News Cycle;-inkscape-font-specification:News Cycle Bold" />
      <path
         d="m 148.7035,448.68105 0,-0.4066 1.30245,0 0,0.4066 -1.30245,0"
         id="path3993-4"
         inkscape:connector-curvature="0"
         style="font-size:9.99791336px;font-style:normal;font-variant:normal;font-weight:bold;font-stretch:normal;text-align:start;line-height:125%;letter-spacing:0px;word-spacing:0px;writing-mode:lr-tb;text-anchor:start;fill:#000000;fill-opacity:1;stroke:none;font-family:News Cycle;-inkscape-font-specification:News Cycle Bold" />
      <path
         d="m 150.00595,448.68105 0,-0.4066 1.30246,0 0,0.4066 -1.30246,0"
         id="path3995-9"
         inkscape:connector-curvature="0"
         style="font-size:9.99791336px;font-style:normal;font-variant:normal;font-weight:bold;font-stretch:normal;text-align:start;line-height:125%;letter-spacing:0px;word-spacing:0px;writing-mode:lr-tb;text-anchor:start;fill:#000000;fill-opacity:1;stroke:none;font-family:News Cycle;-inkscape-font-specification:News Cycle Bold" />
      <path
         d="m 151.30841,448.68105 0,-0.4066 1.30246,0 0,0.4066 -1.30246,0"
         id="path3997-4"
         inkscape:connector-curvature="0"
         style="font-size:9.99791336px;font-style:normal;font-variant:normal;font-weight:bold;font-stretch:normal;text-align:start;line-height:125%;letter-spacing:0px;word-spacing:0px;writing-mode:lr-tb;text-anchor:start;fill:#000000;fill-opacity:1;stroke:none;font-family:News Cycle;-inkscape-font-specification:News Cycle Bold" />
      <path
         d="m 152.61087,448.68105 0,-0.4066 1.30245,0 0,0.4066 -1.30245,0"
         id="path3999-5"
         inkscape:connector-curvature="0"
         style="font-size:9.99791336px;font-style:normal;font-variant:normal;font-weight:bold;font-stretch:normal;text-align:start;line-height:125%;letter-spacing:0px;word-spacing:0px;writing-mode:lr-tb;text-anchor:start;fill:#000000;fill-opacity:1;stroke:none;font-family:News Cycle;-inkscape-font-specification:News Cycle Bold" />
      <path
         d="m 155.21578,448.68105 0,-0.4066 1.30246,0 0,0.4066 -1.30246,0"
         id="path4001-9"
         inkscape:connector-curvature="0"
         style="font-size:9.99791336px;font-style:normal;font-variant:normal;font-weight:bold;font-stretch:normal;text-align:start;line-height:125%;letter-spacing:0px;word-spacing:0px;writing-mode:lr-tb;text-anchor:start;fill:#000000;fill-opacity:1;stroke:none;font-family:News Cycle;-inkscape-font-specification:News Cycle Bold" />
      <path
         d="m 159.12315,448.68105 0,-0.4066 1.30246,0 0,0.4066 -1.30246,0"
         id="path4003-2"
         inkscape:connector-curvature="0"
         style="font-size:9.99791336px;font-style:normal;font-variant:normal;font-weight:bold;font-stretch:normal;text-align:start;line-height:125%;letter-spacing:0px;word-spacing:0px;writing-mode:lr-tb;text-anchor:start;fill:#000000;fill-opacity:1;stroke:none;font-family:News Cycle;-inkscape-font-specification:News Cycle Bold" />
      <path
         d="m 163.03052,448.68105 0,-0.4066 1.30246,0 0,0.4066 -1.30246,0"
         id="path4005-6"
         inkscape:connector-curvature="0"
         style="font-size:9.99791336px;font-style:normal;font-variant:normal;font-weight:bold;font-stretch:normal;text-align:start;line-height:125%;letter-spacing:0px;word-spacing:0px;writing-mode:lr-tb;text-anchor:start;fill:#000000;fill-opacity:1;stroke:none;font-family:News Cycle;-inkscape-font-specification:News Cycle Bold" />
      <path
         d="m 165.63543,448.68105 0,-0.4066 1.30246,0 0,0.4066 -1.30246,0"
         id="path4007-2"
         inkscape:connector-curvature="0"
         style="font-size:9.99791336px;font-style:normal;font-variant:normal;font-weight:bold;font-stretch:normal;text-align:start;line-height:125%;letter-spacing:0px;word-spacing:0px;writing-mode:lr-tb;text-anchor:start;fill:#000000;fill-opacity:1;stroke:none;font-family:News Cycle;-inkscape-font-specification:News Cycle Bold" />
      <path
         d="m 168.24035,448.68105 0,-0.4066 1.30245,0 0,0.4066 -1.30245,0"
         id="path4009-0"
         inkscape:connector-curvature="0"
         style="font-size:9.99791336px;font-style:normal;font-variant:normal;font-weight:bold;font-stretch:normal;text-align:start;line-height:125%;letter-spacing:0px;word-spacing:0px;writing-mode:lr-tb;text-anchor:start;fill:#000000;fill-opacity:1;stroke:none;font-family:News Cycle;-inkscape-font-specification:News Cycle Bold" />
      <path
         d="m 172.14772,448.68105 0,-0.4066 1.30246,0 0,0.4066 -1.30246,0"
         id="path4011-0"
         inkscape:connector-curvature="0"
         style="font-size:9.99791336px;font-style:normal;font-variant:normal;font-weight:bold;font-stretch:normal;text-align:start;line-height:125%;letter-spacing:0px;word-spacing:0px;writing-mode:lr-tb;text-anchor:start;fill:#000000;fill-opacity:1;stroke:none;font-family:News Cycle;-inkscape-font-specification:News Cycle Bold" />
      <path
         d="m 176.05509,448.68105 0,-0.4066 1.30245,0 0,0.4066 -1.30245,0"
         id="path4013-7"
         inkscape:connector-curvature="0"
         style="font-size:9.99791336px;font-style:normal;font-variant:normal;font-weight:bold;font-stretch:normal;text-align:start;line-height:125%;letter-spacing:0px;word-spacing:0px;writing-mode:lr-tb;text-anchor:start;fill:#000000;fill-opacity:1;stroke:none;font-family:News Cycle;-inkscape-font-specification:News Cycle Bold" />
      <path
         d="m 177.35755,448.68105 0,-0.4066 1.30245,0 0,0.4066 -1.30245,0"
         id="path4015-1"
         inkscape:connector-curvature="0"
         style="font-size:9.99791336px;font-style:normal;font-variant:normal;font-weight:bold;font-stretch:normal;text-align:start;line-height:125%;letter-spacing:0px;word-spacing:0px;writing-mode:lr-tb;text-anchor:start;fill:#000000;fill-opacity:1;stroke:none;font-family:News Cycle;-inkscape-font-specification:News Cycle Bold" />
      <path
         d="m 179.96246,448.68105 0,-0.4066 1.30246,0 0,0.4066 -1.30246,0"
         id="path4017-2"
         inkscape:connector-curvature="0"
         style="font-size:9.99791336px;font-style:normal;font-variant:normal;font-weight:bold;font-stretch:normal;text-align:start;line-height:125%;letter-spacing:0px;word-spacing:0px;writing-mode:lr-tb;text-anchor:start;fill:#000000;fill-opacity:1;stroke:none;font-family:News Cycle;-inkscape-font-specification:News Cycle Bold" />
      <path
         d="m 162.24673,455.26964 -0.0345,0.0302 c -0.0489,0.046 -0.10069,0.0691 -0.15536,0.0691 -0.0518,0 -0.0892,-0.0144 -0.11221,-0.0432 -0.023,-0.0288 -0.0345,-0.0575 -0.0345,-0.0863 0,-0.0489 0.0259,-0.0978 0.0777,-0.14673 l 0.26326,-0.25894 c 0.0489,-0.0431 0.0978,-0.0647 0.14673,-0.0647 0.0345,10e-6 0.069,0.0144 0.10357,0.0432 0.0374,0.0259 0.0561,0.0662 0.0561,0.12084 l 0,2.64981 c 0,0.11509 -0.0518,0.17263 -0.15537,0.17263 -0.10357,0 -0.15536,-0.0575 -0.15536,-0.17263 l 0,-2.31319"
         style="font-size:4.41923475px;font-style:normal;font-variant:normal;font-weight:600;font-stretch:normal;text-align:start;line-height:125%;letter-spacing:0px;word-spacing:0px;writing-mode:lr-tb;text-anchor:start;fill:#1a1a1a;fill-opacity:1;stroke:none;font-family:Jura;-inkscape-font-specification:Jura Semi-Bold"
         id="path4155"
         inkscape:connector-curvature="0" />
      <path
         d="m 164.72823,455.26964 -0.39704,0 c -0.14673,0 -0.28052,0.023 -0.40135,0.0691 -0.11797,0.046 -0.17695,0.0978 -0.17695,0.15536 0,0.12372 -0.0518,0.18558 -0.15536,0.18558 -0.10358,0 -0.15536,-0.0647 -0.15536,-0.19421 0,-0.14385 0.0777,-0.26757 0.23304,-0.37114 0.15537,-0.10358 0.36396,-0.15536 0.62577,-0.15537 l 0.37115,0 c 0.34525,1e-5 0.58837,0.0647 0.72935,0.19421 0.14385,0.12659 0.21578,0.34094 0.21578,0.64303 0,0.0949 -0.0518,0.19133 -0.15536,0.28915 -0.10358,0.0978 -0.21435,0.1755 -0.33231,0.23305 0.11508,0.0604 0.22441,0.14961 0.32799,0.26757 0.10645,0.11796 0.15968,0.22585 0.15968,0.32367 0,0.3021 -0.0719,0.51788 -0.21578,0.64735 -0.14098,0.12659 -0.3841,0.18989 -0.72935,0.18989 l -0.37115,0 c -0.26181,0 -0.4704,-0.0518 -0.62577,-0.15537 -0.15536,-0.10357 -0.23304,-0.22585 -0.23304,-0.36683 0,-0.13234 0.0518,-0.19852 0.15536,-0.19852 0.10358,0 0.15536,0.0619 0.15536,0.18558 0,0.0575 0.059,0.10933 0.17695,0.15536 0.11796,0.046 0.25174,0.0691 0.40135,0.0691 l 0.39704,0 c 0.22442,0 0.3769,-0.0374 0.45746,-0.11221 0.0834,-0.0777 0.12516,-0.19132 0.12516,-0.34093 0,-0.12947 -0.0921,-0.24599 -0.2762,-0.34957 -0.18126,-0.10358 -0.35677,-0.15536 -0.52651,-0.15537 -0.15249,1e-5 -0.22874,-0.0532 -0.22873,-0.15967 -1e-5,-0.10358 0.0762,-0.15537 0.22873,-0.15537 0.18701,0 0.36682,-0.0432 0.53945,-0.12947 0.1755,-0.0863 0.26326,-0.19276 0.26326,-0.31936 0,-0.14673 -0.0417,-0.2575 -0.12516,-0.3323 -0.0806,-0.0748 -0.23304,-0.11221 -0.45746,-0.11221"
         style="font-size:4.41923475px;font-style:normal;font-variant:normal;font-weight:600;font-stretch:normal;text-align:start;line-height:125%;letter-spacing:0px;word-spacing:0px;writing-mode:lr-tb;text-anchor:start;fill:#1a1a1a;fill-opacity:1;stroke:none;font-family:Jura;-inkscape-font-specification:Jura Semi-Bold"
         id="path4157"
         inkscape:connector-curvature="0" />
      <path
         d="m 167.31763,457.76841 c -0.0432,0 -0.0849,-0.0115 -0.12515,-0.0345 -0.0403,-0.023 -0.0604,-0.059 -0.0604,-0.10789 -1e-5,-0.0288 0.0101,-0.0633 0.0302,-0.10358 l 0.95376,-2.27435 -1.21702,0 c -0.0777,0 -0.13091,0.0158 -0.15968,0.0475 -0.0259,0.0288 -0.0388,0.0849 -0.0388,0.16831 0,0.12948 -0.0518,0.19421 -0.15536,0.19421 -0.10358,0 -0.15537,-0.0647 -0.15537,-0.19421 0,-0.187 0.0374,-0.32079 0.11221,-0.40135 0.0777,-0.0834 0.19852,-0.12515 0.36252,-0.12516 l 1.46732,0 c 0.10357,1e-5 0.15536,0.0475 0.15536,0.14242 0,0.023 -0.006,0.0561 -0.0173,0.0993 l -0.98397,2.4513 c -0.0374,0.0921 -0.0935,0.1381 -0.16831,0.1381"
         style="font-size:4.41923475px;font-style:normal;font-variant:normal;font-weight:600;font-stretch:normal;text-align:start;line-height:125%;letter-spacing:0px;word-spacing:0px;writing-mode:lr-tb;text-anchor:start;fill:#1a1a1a;fill-opacity:1;stroke:none;font-family:Jura;-inkscape-font-specification:Jura Semi-Bold"
         id="path4159"
         inkscape:connector-curvature="0" />
      <path
         d="m 171.26214,457.03474 -0.19852,0 0,0.55241 c 0,0.11221 -0.0518,0.16831 -0.15536,0.16831 -0.0489,0 -0.0906,-0.0144 -0.12516,-0.0432 -0.0316,-0.0288 -0.0475,-0.0705 -0.0475,-0.12515 l 0,-0.55241 -1.48459,0 0,-0.32367 1.45007,-1.75216 0.36251,0 0,1.76511 0.19852,0 c 0.12084,0 0.18126,0.0518 0.18126,0.15536 0,0.10358 -0.0604,0.15537 -0.18126,0.15536 m -0.52651,-0.31072 0,-1.37238 -1.1307,1.37238 1.1307,0"
         style="font-size:4.41923475px;font-style:normal;font-variant:normal;font-weight:600;font-stretch:normal;text-align:start;line-height:125%;letter-spacing:0px;word-spacing:0px;writing-mode:lr-tb;text-anchor:start;fill:#1a1a1a;fill-opacity:1;stroke:none;font-family:Jura;-inkscape-font-specification:Jura Semi-Bold"
         id="path4161"
         inkscape:connector-curvature="0" />
      <path
         d="m 174.34352,455.75731 c 0,0.14386 -0.0619,0.27333 -0.18557,0.38841 -0.12084,0.11508 -0.27045,0.21578 -0.44883,0.3021 -0.17551,0.0834 -0.35389,0.16831 -0.53514,0.25462 -0.17838,0.0863 -0.33519,0.19277 -0.47041,0.31936 -0.13235,0.12371 -0.20571,0.26181 -0.2201,0.4143 l 1.66585,0 c 0.12946,0 0.1942,0.0532 0.1942,0.15968 0,0.1007 -0.0647,0.15105 -0.1942,0.15105 l -1.97657,0 0,-0.24599 c -1e-5,-0.2014 0.0633,-0.37978 0.18988,-0.53515 0.12947,-0.15824 0.28484,-0.28483 0.4661,-0.37977 0.18413,-0.0949 0.36682,-0.18126 0.54808,-0.25894 0.18126,-0.0806 0.33518,-0.16687 0.46178,-0.25894 0.12947,-0.0921 0.1942,-0.19277 0.1942,-0.3021 0,-0.21578 -0.0475,-0.35244 -0.14241,-0.40999 -0.0949,-0.0575 -0.28052,-0.0863 -0.55672,-0.0863 l -0.6603,0 c -0.0748,0 -0.12515,0.0144 -0.15105,0.0432 -0.0259,0.0288 -0.0388,0.0863 -0.0388,0.17262 0,0.12948 -0.0532,0.19421 -0.15968,0.19421 -0.1007,0 -0.15105,-0.0647 -0.15104,-0.19421 -1e-5,-0.18988 0.0374,-0.32511 0.1122,-0.40567 0.0748,-0.0806 0.19421,-0.12083 0.3582,-0.12084 l 0.69051,0 c 0.34813,1e-5 0.60275,0.0547 0.76387,0.164 0.16399,0.10933 0.24599,0.3208 0.24599,0.6344"
         style="font-size:4.41923475px;font-style:normal;font-variant:normal;font-weight:600;font-stretch:normal;text-align:start;line-height:125%;letter-spacing:0px;word-spacing:0px;writing-mode:lr-tb;text-anchor:start;fill:#1a1a1a;fill-opacity:1;stroke:none;font-family:Jura;-inkscape-font-specification:Jura Semi-Bold"
         id="path4163"
         inkscape:connector-curvature="0" />
      <path
         d="m 176.36325,455.26964 -0.39704,0 c -0.14673,0 -0.28052,0.023 -0.40136,0.0691 -0.11796,0.046 -0.17694,0.0978 -0.17694,0.15536 0,0.12372 -0.0518,0.18558 -0.15536,0.18558 -0.10358,0 -0.15537,-0.0647 -0.15537,-0.19421 0,-0.14385 0.0777,-0.26757 0.23305,-0.37114 0.15536,-0.10358 0.36395,-0.15536 0.62577,-0.15537 l 0.37115,0 c 0.34525,1e-5 0.58836,0.0647 0.72934,0.19421 0.14386,0.12659 0.21578,0.34094 0.21579,0.64303 -1e-5,0.0949 -0.0518,0.19133 -0.15537,0.28915 -0.10358,0.0978 -0.21434,0.1755 -0.3323,0.23305 0.11508,0.0604 0.22441,0.14961 0.32799,0.26757 0.10645,0.11796 0.15967,0.22585 0.15968,0.32367 -1e-5,0.3021 -0.0719,0.51788 -0.21579,0.64735 -0.14098,0.12659 -0.38409,0.18989 -0.72934,0.18989 l -0.37115,0 c -0.26182,0 -0.47041,-0.0518 -0.62577,-0.15537 -0.15536,-0.10357 -0.23305,-0.22585 -0.23305,-0.36683 0,-0.13234 0.0518,-0.19852 0.15537,-0.19852 0.10357,0 0.15536,0.0619 0.15536,0.18558 0,0.0575 0.059,0.10933 0.17694,0.15536 0.11796,0.046 0.25175,0.0691 0.40136,0.0691 l 0.39704,0 c 0.22441,0 0.3769,-0.0374 0.45746,-0.11221 0.0834,-0.0777 0.12515,-0.19132 0.12515,-0.34093 0,-0.12947 -0.0921,-0.24599 -0.2762,-0.34957 -0.18126,-0.10358 -0.35676,-0.15536 -0.52651,-0.15537 -0.15249,1e-5 -0.22873,-0.0532 -0.22873,-0.15967 0,-0.10358 0.0762,-0.15537 0.22873,-0.15537 0.18701,0 0.36683,-0.0432 0.53946,-0.12947 0.1755,-0.0863 0.26325,-0.19276 0.26325,-0.31936 0,-0.14673 -0.0417,-0.2575 -0.12515,-0.3323 -0.0806,-0.0748 -0.23305,-0.11221 -0.45746,-0.11221"
         style="font-size:4.41923475px;font-style:normal;font-variant:normal;font-weight:600;font-stretch:normal;text-align:start;line-height:125%;letter-spacing:0px;word-spacing:0px;writing-mode:lr-tb;text-anchor:start;fill:#1a1a1a;fill-opacity:1;stroke:none;font-family:Jura;-inkscape-font-specification:Jura Semi-Bold"
         id="path4165"
         inkscape:connector-curvature="0" />
      <path
         d="m 178.1413,457.11674 c 0.023,0 0.0748,0.0288 0.15537,0.0863 0.0805,0.0547 0.18701,0.11076 0.31935,0.16831 0.13235,0.0547 0.27333,0.082 0.42294,0.082 0.25894,0 0.45314,-0.0633 0.58261,-0.18989 0.12947,-0.12946 0.19421,-0.31072 0.19421,-0.54377 0,-0.2129 -0.0705,-0.36971 -0.21147,-0.47041 -0.1381,-0.10069 -0.28627,-0.15104 -0.44451,-0.15104 l -1.13934,0 0.0388,-0.56535 c 0.0144,-0.21291 0.0633,-0.36108 0.14674,-0.44452 0.0834,-0.0863 0.21578,-0.12946 0.39704,-0.12947 l 1.16091,0 c 0.12084,10e-6 0.18126,0.0532 0.18126,0.15968 0,0.0403 -0.0144,0.0763 -0.0432,0.10789 -0.0259,0.0288 -0.0719,0.0432 -0.1381,0.0432 l -1.19544,0 c -0.0604,0 -0.10501,0.0144 -0.13378,0.0432 -0.0288,0.0259 -0.0475,0.0777 -0.0561,0.15536 l -0.0259,0.31936 0.76819,0 c 0.26757,0 0.50205,0.0849 0.70345,0.25462 0.20139,0.16688 0.30209,0.39273 0.3021,0.67756 -1e-5,0.32512 -0.10071,0.58118 -0.3021,0.76819 -0.19852,0.18413 -0.46034,0.2762 -0.78545,0.2762 -0.20428,0 -0.43013,-0.0532 -0.67756,-0.15968 -0.24455,-0.10645 -0.36683,-0.21722 -0.36683,-0.3323 0,-0.0432 0.0158,-0.0791 0.0475,-0.1079 0.0317,-0.0316 0.0647,-0.0475 0.0993,-0.0475"
         style="font-size:4.41923475px;font-style:normal;font-variant:normal;font-weight:600;font-stretch:normal;text-align:start;line-height:125%;letter-spacing:0px;word-spacing:0px;writing-mode:lr-tb;text-anchor:start;fill:#1a1a1a;fill-opacity:1;stroke:none;font-family:Jura;-inkscape-font-specification:Jura Semi-Bold"
         id="path4167"
         inkscape:connector-curvature="0" />
      <path
         d="m 183.06978,455.75731 c 0,0.14386 -0.0619,0.27333 -0.18557,0.38841 -0.12084,0.11508 -0.27045,0.21578 -0.44883,0.3021 -0.1755,0.0834 -0.35388,0.16831 -0.53514,0.25462 -0.17838,0.0863 -0.33518,0.19277 -0.47041,0.31936 -0.13234,0.12371 -0.20571,0.26181 -0.2201,0.4143 l 1.66585,0 c 0.12947,0 0.1942,0.0532 0.1942,0.15968 0,0.1007 -0.0647,0.15105 -0.1942,0.15105 l -1.97657,0 0,-0.24599 c 0,-0.2014 0.0633,-0.37978 0.18989,-0.53515 0.12947,-0.15824 0.28483,-0.28483 0.46609,-0.37977 0.18413,-0.0949 0.36683,-0.18126 0.54809,-0.25894 0.18125,-0.0806 0.33518,-0.16687 0.46177,-0.25894 0.12947,-0.0921 0.1942,-0.19277 0.19421,-0.3021 -1e-5,-0.21578 -0.0475,-0.35244 -0.14242,-0.40999 -0.0949,-0.0575 -0.28052,-0.0863 -0.55672,-0.0863 l -0.6603,0 c -0.0748,0 -0.12515,0.0144 -0.15104,0.0432 -0.0259,0.0288 -0.0388,0.0863 -0.0388,0.17262 0,0.12948 -0.0532,0.19421 -0.15967,0.19421 -0.1007,0 -0.15105,-0.0647 -0.15105,-0.19421 0,-0.18988 0.0374,-0.32511 0.1122,-0.40567 0.0748,-0.0806 0.19421,-0.12083 0.3582,-0.12084 l 0.69051,0 c 0.34813,1e-5 0.60275,0.0547 0.76387,0.164 0.16399,0.10933 0.24599,0.3208 0.24599,0.6344"
         style="font-size:4.41923475px;font-style:normal;font-variant:normal;font-weight:600;font-stretch:normal;text-align:start;line-height:125%;letter-spacing:0px;word-spacing:0px;writing-mode:lr-tb;text-anchor:start;fill:#1a1a1a;fill-opacity:1;stroke:none;font-family:Jura;-inkscape-font-specification:Jura Semi-Bold"
         id="path4169"
         inkscape:connector-curvature="0" />
      <path
         d="m 184.00628,455.26964 -0.0345,0.0302 c -0.0489,0.046 -0.1007,0.0691 -0.15537,0.0691 -0.0518,0 -0.0892,-0.0144 -0.1122,-0.0432 -0.023,-0.0288 -0.0345,-0.0575 -0.0345,-0.0863 0,-0.0489 0.0259,-0.0978 0.0777,-0.14673 l 0.26326,-0.25894 c 0.0489,-0.0431 0.0978,-0.0647 0.14673,-0.0647 0.0345,10e-6 0.0691,0.0144 0.10358,0.0432 0.0374,0.0259 0.0561,0.0662 0.0561,0.12084 l 0,2.64981 c 0,0.11509 -0.0518,0.17263 -0.15536,0.17263 -0.10358,0 -0.15537,-0.0575 -0.15537,-0.17263 l 0,-2.31319"
         style="font-size:4.41923475px;font-style:normal;font-variant:normal;font-weight:bold;font-stretch:normal;text-align:start;line-height:125%;letter-spacing:0px;word-spacing:0px;writing-mode:lr-tb;text-anchor:start;fill:#1a1a1a;fill-opacity:1;stroke:none;font-family:News Cycle;-inkscape-font-specification:News Cycle Bold"
         id="path4171"
         inkscape:connector-curvature="0" />
      <path
         d="m 186.48779,455.26964 -0.39704,0 c -0.14674,0 -0.28052,0.023 -0.40136,0.0691 -0.11796,0.046 -0.17694,0.0978 -0.17694,0.15536 0,0.12372 -0.0518,0.18558 -0.15537,0.18558 -0.10357,0 -0.15536,-0.0647 -0.15536,-0.19421 0,-0.14385 0.0777,-0.26757 0.23305,-0.37114 0.15536,-0.10358 0.36395,-0.15536 0.62577,-0.15537 l 0.37114,0 c 0.34525,1e-5 0.58837,0.0647 0.72935,0.19421 0.14385,0.12659 0.21578,0.34094 0.21578,0.64303 0,0.0949 -0.0518,0.19133 -0.15536,0.28915 -0.10358,0.0978 -0.21435,0.1755 -0.33231,0.23305 0.11508,0.0604 0.22441,0.14961 0.32799,0.26757 0.10645,0.11796 0.15968,0.22585 0.15968,0.32367 0,0.3021 -0.0719,0.51788 -0.21578,0.64735 -0.14098,0.12659 -0.3841,0.18989 -0.72935,0.18989 l -0.37114,0 c -0.26182,0 -0.47041,-0.0518 -0.62577,-0.15537 -0.15537,-0.10357 -0.23305,-0.22585 -0.23305,-0.36683 0,-0.13234 0.0518,-0.19852 0.15536,-0.19852 0.10358,0 0.15537,0.0619 0.15537,0.18558 0,0.0575 0.059,0.10933 0.17694,0.15536 0.11796,0.046 0.25174,0.0691 0.40136,0.0691 l 0.39704,0 c 0.22441,0 0.37689,-0.0374 0.45746,-0.11221 0.0834,-0.0777 0.12515,-0.19132 0.12515,-0.34093 0,-0.12947 -0.0921,-0.24599 -0.2762,-0.34957 -0.18126,-0.10358 -0.35677,-0.15536 -0.52651,-0.15537 -0.15249,1e-5 -0.22873,-0.0532 -0.22873,-0.15967 0,-0.10358 0.0762,-0.15537 0.22873,-0.15537 0.18701,0 0.36683,-0.0432 0.53945,-0.12947 0.17551,-0.0863 0.26326,-0.19276 0.26326,-0.31936 0,-0.14673 -0.0417,-0.2575 -0.12515,-0.3323 -0.0806,-0.0748 -0.23305,-0.11221 -0.45746,-0.11221"
         style="font-size:4.41923475px;font-style:normal;font-variant:normal;font-weight:bold;font-stretch:normal;text-align:start;line-height:125%;letter-spacing:0px;word-spacing:0px;writing-mode:lr-tb;text-anchor:start;fill:#1a1a1a;fill-opacity:1;stroke:none;font-family:News Cycle;-inkscape-font-specification:News Cycle Bold"
         id="path4173"
         inkscape:connector-curvature="0" />
      <path
         d="m 136.54226,452.53687 c 0,0.50162 0.10951,0.81955 0.32853,0.95379 0.21902,0.13424 0.64292,0.20135 1.27172,0.20135 0.31793,0 0.4769,0.12011 0.4769,0.36033 0,0.26847 -0.15897,0.40271 -0.4769,0.40271 -0.79836,0 -1.39183,-0.13071 -1.78041,-0.39212 -0.38858,-0.26847 -0.58287,-0.76656 -0.58287,-1.49427 l 0,-2.2891 c -0.21902,-0.0353 -0.32853,-0.15896 -0.32853,-0.37092 0,-0.18369 0.10951,-0.2932 0.32853,-0.32853 l 0,-1.00678 c 0,-0.32499 0.1201,-0.48749 0.36032,-0.4875 0.26847,1e-5 0.40271,0.16251 0.40271,0.4875 l 0,0.99618 1.35651,0 c 0.32499,1e-5 0.48749,0.13424 0.48749,0.40271 0,0.24022 -0.1625,0.36033 -0.48749,0.36033 l -1.35651,0 0,2.20432"
         style="font-size:10.85203743px;font-style:normal;font-variant:normal;font-weight:bold;font-stretch:normal;text-align:start;line-height:125%;letter-spacing:0px;word-spacing:0px;writing-mode:lr-tb;text-anchor:start;fill:#1a1a1a;fill-opacity:1;stroke:none;font-family:News Cycle;-inkscape-font-specification:News Cycle Bold"
         id="path4176"
         inkscape:connector-curvature="0" />
      <path
         d="m 143.14462,454.45505 -0.30733,0 c -0.95379,0 -1.63911,-0.12717 -2.05595,-0.38152 -0.41685,-0.26141 -0.62527,-0.76303 -0.62527,-1.50487 l 0,-1.11276 c 0,-0.74183 0.20842,-1.23993 0.62527,-1.49427 0.41684,-0.26141 1.10216,-0.39211 2.05595,-0.39212 l 0.30733,0 c 0.94673,1e-5 1.62851,0.13071 2.04536,0.39212 0.41683,0.25434 0.62526,0.75244 0.62526,1.49427 l 0,1.11276 c 0,0.74184 -0.20843,1.24346 -0.62526,1.50487 -0.41685,0.25435 -1.09863,0.38152 -2.04536,0.38152 m -0.30733,-0.76304 0.30733,0 c 0.78423,0 1.29645,-0.0636 1.53667,-0.19075 0.24727,-0.13424 0.37091,-0.4557 0.37092,-0.96439 l 0,-1.04918 c -1e-5,-0.50868 -0.12365,-0.82661 -0.37092,-0.95379 -0.24022,-0.13423 -0.75244,-0.20135 -1.53667,-0.20135 l -0.30733,0 c -0.7913,0 -1.31058,0.0671 -1.55786,0.20135 -0.24022,0.12718 -0.36032,0.44511 -0.36032,0.95379 l 0,1.04918 c 0,0.50869 0.1201,0.83015 0.36032,0.96439 0.24728,0.12717 0.76656,0.19075 1.55786,0.19075"
         style="font-size:10.85203743px;font-style:normal;font-variant:normal;font-weight:bold;font-stretch:normal;text-align:start;line-height:125%;letter-spacing:0px;word-spacing:0px;writing-mode:lr-tb;text-anchor:start;fill:#1a1a1a;fill-opacity:1;stroke:none;font-family:News Cycle;-inkscape-font-specification:News Cycle Bold"
         id="path4178"
         inkscape:connector-curvature="0" />
      <path
         d="m 152.51298,451.48769 c 0,-0.50868 -0.12364,-0.82661 -0.37091,-0.95379 -0.24022,-0.13423 -0.75245,-0.20135 -1.53667,-0.20135 l -0.30733,0 c -0.72065,0 -1.22227,0.1519 -1.50488,0.4557 -0.27554,0.29673 -0.41331,0.69945 -0.41331,1.20813 l 0,1.69563 2.25731,0 c 0.7701,0 1.27525,-0.0636 1.51547,-0.19075 0.24021,-0.13424 0.36032,-0.4557 0.36032,-0.96439 l 0,-1.04918 m 0.76304,1.08097 c -10e-6,0.74184 -0.20843,1.24346 -0.62527,1.50487 -0.40978,0.25435 -1.08097,0.38152 -2.01356,0.38152 l -2.25731,0 0,1.45188 c 0,0.31793 -0.13423,0.4769 -0.40271,0.4769 -0.24021,0 -0.36032,-0.15897 -0.36032,-0.4769 l 0,-5.9665 c 0,-0.29673 0.12717,-0.4451 0.38152,-0.4451 0.25434,0 0.38151,0.15897 0.38151,0.47689 l 0,0.12718 c 0.43804,-0.35326 1.07743,-0.52988 1.91819,-0.52989 l 0.30733,0 c 0.94672,1e-5 1.62851,0.13071 2.04535,0.39212 0.41684,0.25434 0.62526,0.75244 0.62527,1.49427 l 0,1.11276"
         style="font-size:10.85203743px;font-style:normal;font-variant:normal;font-weight:bold;font-stretch:normal;text-align:start;line-height:125%;letter-spacing:0px;word-spacing:0px;writing-mode:lr-tb;text-anchor:start;fill:#1a1a1a;fill-opacity:1;stroke:none;font-family:News Cycle;-inkscape-font-specification:News Cycle Bold"
         id="path4180"
         inkscape:connector-curvature="0" />
      <path
         d="m 157.75884,451.22275 1.45189,0 0,-0.4451 c -1e-5,-0.17663 -0.0318,-0.2932 -0.0954,-0.34973 -0.0636,-0.0636 -0.19077,-0.0954 -0.38152,-0.0954 l -1.49427,0 c -0.55109,0 -0.92201,0.0318 -1.11276,0.0954 -0.19076,0.0565 -0.28614,0.16251 -0.28614,0.31794 0,0.31793 -0.13071,0.47689 -0.39211,0.47689 -0.24728,0 -0.37092,-0.15896 -0.37092,-0.47689 0,-0.4451 0.17662,-0.75244 0.52988,-0.922 0.36032,-0.16956 0.87961,-0.25434 1.55786,-0.25435 l 1.64264,0 c 0.45217,1e-5 0.7595,0.10598 0.922,0.31793 0.1625,0.21196 0.24374,0.56522 0.24375,1.05977 l 0,3.13692 c -1e-5,0.29673 -0.12718,0.4451 -0.38152,0.4451 -0.25435,0 -0.38152,-0.15896 -0.38151,-0.47689 l 0,-0.12718 c -0.42392,0.35326 -1.05978,0.52989 -1.90759,0.52989 l -0.98558,0 c -0.36033,0 -0.65706,-0.12364 -0.89021,-0.37092 -0.23315,-0.24728 -0.34972,-0.57934 -0.34972,-0.99618 0,-0.72065 0.21195,-1.21167 0.63586,-1.47308 0.43097,-0.26141 1.11275,-0.39212 2.04535,-0.39212 m 1.45189,0.76304 -1.45189,0 c -0.79129,0 -1.31058,0.0671 -1.55786,0.20135 -0.24021,0.12718 -0.36032,0.44511 -0.36032,0.95379 0,0.14837 0.053,0.27908 0.15897,0.39212 0.10597,0.10598 0.21195,0.15896 0.31793,0.15896 l 0.98558,0 c 0.40978,0 0.75243,-0.053 1.02798,-0.15896 0.27553,-0.10598 0.46982,-0.25435 0.58287,-0.4451 0.1201,-0.19076 0.19782,-0.36739 0.23315,-0.52989 0.0424,-0.1625 0.0636,-0.35325 0.0636,-0.57227"
         style="font-size:10.85203743px;font-style:normal;font-variant:normal;font-weight:bold;font-stretch:normal;text-align:start;line-height:125%;letter-spacing:0px;word-spacing:0px;writing-mode:lr-tb;text-anchor:start;fill:#1a1a1a;fill-opacity:1;stroke:none;font-family:News Cycle;-inkscape-font-specification:News Cycle Bold"
         id="path4182"
         inkscape:connector-curvature="0" />
      <path
         d="m 164.45659,450.33255 c -0.71359,0 -1.21168,0.15543 -1.49428,0.46629 -0.28261,0.30381 -0.42391,0.71358 -0.42391,1.22934 l 0,2.05595 c 0,0.29673 -0.12717,0.4451 -0.38151,0.4451 -0.25435,0 -0.38152,-0.14837 -0.38152,-0.4451 l 0,-5.9559 c 0,-0.32499 0.12011,-0.48749 0.36032,-0.4875 0.26847,10e-6 0.40271,0.16251 0.40271,0.4875 l 0,1.97117 c 0.43804,-0.35326 1.07743,-0.52988 1.91819,-0.52989 l 0.30733,0 c 0.94672,1e-5 1.6285,0.13071 2.04535,0.39212 0.41684,0.25434 0.62526,0.75244 0.62527,1.49427 l 0,2.62823 c -1e-5,0.29673 -0.12365,0.4451 -0.37092,0.4451 -0.26142,0 -0.39212,-0.14837 -0.39212,-0.4451 l 0,-2.59644 c 0,-0.50868 -0.12364,-0.82661 -0.37092,-0.95379 -0.24022,-0.13423 -0.75244,-0.20135 -1.53666,-0.20135 l -0.30733,0"
         style="font-size:10.85203743px;font-style:normal;font-variant:normal;font-weight:600;font-stretch:normal;text-align:start;line-height:125%;letter-spacing:0px;word-spacing:0px;writing-mode:lr-tb;text-anchor:start;fill:#1a1a1a;fill-opacity:1;stroke:none;font-family:Jura;-inkscape-font-specification:Jura Semi-Bold"
         id="path4184"
         inkscape:connector-curvature="0" />
      <path
         d="m 171.91736,451.22275 1.45188,0 0,-0.4451 c 0,-0.17663 -0.0318,-0.2932 -0.0954,-0.34973 -0.0636,-0.0636 -0.19076,-0.0954 -0.38151,-0.0954 l -1.49428,0 c -0.55108,0 -0.922,0.0318 -1.11276,0.0954 -0.19076,0.0565 -0.28614,0.16251 -0.28613,0.31794 -1e-5,0.31793 -0.13071,0.47689 -0.39212,0.47689 -0.24728,0 -0.37092,-0.15896 -0.37092,-0.47689 0,-0.4451 0.17663,-0.75244 0.52989,-0.922 0.36032,-0.16956 0.8796,-0.25434 1.55786,-0.25435 l 1.64264,0 c 0.45216,1e-5 0.7595,0.10598 0.922,0.31793 0.16249,0.21196 0.24374,0.56522 0.24375,1.05977 l 0,3.13692 c -1e-5,0.29673 -0.12718,0.4451 -0.38152,0.4451 -0.25435,0 -0.38152,-0.15896 -0.38152,-0.47689 l 0,-0.12718 c -0.42391,0.35326 -1.05977,0.52989 -1.90758,0.52989 l -0.98559,0 c -0.36032,0 -0.65706,-0.12364 -0.8902,-0.37092 -0.23315,-0.24728 -0.34973,-0.57934 -0.34973,-0.99618 0,-0.72065 0.21196,-1.21167 0.63586,-1.47308 0.43097,-0.26141 1.11276,-0.39212 2.04536,-0.39212 m 1.45188,0.76304 -1.45188,0 c -0.7913,0 -1.31058,0.0671 -1.55786,0.20135 -0.24022,0.12718 -0.36033,0.44511 -0.36032,0.95379 -1e-5,0.14837 0.053,0.27908 0.15896,0.39212 0.10598,0.10598 0.21195,0.15896 0.31793,0.15896 l 0.98559,0 c 0.40977,0 0.75243,-0.053 1.02797,-0.15896 0.27554,-0.10598 0.46983,-0.25435 0.58288,-0.4451 0.1201,-0.19076 0.19782,-0.36739 0.23315,-0.52989 0.0424,-0.1625 0.0636,-0.35325 0.0636,-0.57227"
         style="font-size:10.85203743px;font-style:normal;font-variant:normal;font-weight:600;font-stretch:normal;text-align:start;line-height:125%;letter-spacing:0px;word-spacing:0px;writing-mode:lr-tb;text-anchor:start;fill:#1a1a1a;fill-opacity:1;stroke:none;font-family:Jura;-inkscape-font-specification:Jura Semi-Bold"
         id="path4186"
         inkscape:connector-curvature="0" />
      <path
         d="m 180.10938,454.45505 -1.49428,0 c -0.95379,0 -1.63911,-0.12717 -2.05595,-0.38152 -0.41684,-0.26141 -0.62527,-0.76303 -0.62527,-1.50487 l 0,-1.11276 c 0,-0.74183 0.20843,-1.23993 0.62527,-1.49427 0.41684,-0.26141 1.10216,-0.39211 2.05595,-0.39212 l 1.49428,0 c 0.45922,1e-5 0.76656,0.12011 0.922,0.36032 0.16249,0.23316 0.24374,0.54402 0.24374,0.9326 0,0.31793 -0.12718,0.4769 -0.38151,0.4769 -0.0989,0 -0.18724,-0.0353 -0.26495,-0.10598 -0.0777,-0.0707 -0.11658,-0.18722 -0.11657,-0.34972 -1e-5,-0.21195 -0.0318,-0.35679 -0.0954,-0.43451 -0.0636,-0.0777 -0.19076,-0.11657 -0.38152,-0.11657 l -1.42009,0 c -0.7913,0 -1.31058,0.0671 -1.55786,0.20135 -0.24022,0.12718 -0.36032,0.44511 -0.36032,0.95379 l 0,1.04918 c 0,0.50869 0.1201,0.83015 0.36032,0.96439 0.24728,0.12717 0.76656,0.19075 1.55786,0.19075 l 1.42009,0 c 0.19076,0 0.31793,-0.0388 0.38152,-0.11657 0.0636,-0.0777 0.0954,-0.22255 0.0954,-0.43451 -1e-5,-0.16249 0.0388,-0.27907 0.11657,-0.34972 0.0777,-0.0707 0.16603,-0.10598 0.26495,-0.10598 0.25433,0 0.38151,0.1625 0.38151,0.4875 0,0.38858 -0.0812,0.69945 -0.24374,0.93259 -0.15544,0.23315 -0.46278,0.34973 -0.922,0.34973"
         style="font-size:10.85203743px;font-style:normal;font-variant:normal;font-weight:600;font-stretch:normal;text-align:start;line-height:125%;letter-spacing:0px;word-spacing:0px;writing-mode:lr-tb;text-anchor:start;fill:#1a1a1a;fill-opacity:1;stroke:none;font-family:Jura;-inkscape-font-specification:Jura Semi-Bold"
         id="path4188"
         inkscape:connector-curvature="0" />
      <path
         d="m 187.38999,454.16891 c 0,0.0848 -0.0353,0.16603 -0.10598,0.24375 -0.0707,0.0707 -0.15543,0.10597 -0.25434,0.10597 -0.10598,0 -0.21549,-0.0494 -0.32853,-0.14836 l -2.66002,-2.36329 -0.20136,0.20136 0,1.87579 c 0,0.29673 -0.1307,0.4451 -0.39211,0.4451 -0.24728,0 -0.37092,-0.13777 -0.37092,-0.41331 l 0,-6.01949 c 0,-0.16249 0.0389,-0.27906 0.11657,-0.34972 0.0777,-0.0707 0.16603,-0.10597 0.26495,-0.10598 0.0989,10e-6 0.18722,0.0353 0.26494,0.10598 0.0777,0.0707 0.11657,0.18723 0.11657,0.34972 l 0,3.37007 2.07715,-1.80161 c 0.11304,-0.0989 0.22608,-0.14836 0.33913,-0.14837 0.0918,10e-6 0.17662,0.0353 0.25434,0.10598 0.0777,0.0707 0.11657,0.15544 0.11658,0.25434 -1e-5,0.12012 -0.0565,0.22256 -0.16957,0.30734 l -1.85459,1.48367 2.63882,2.18313 c 0.0989,0.0707 0.14837,0.17663 0.14837,0.31793"
         style="font-size:10.85203743px;font-style:normal;font-variant:normal;font-weight:600;font-stretch:normal;text-align:start;line-height:125%;letter-spacing:0px;word-spacing:0px;writing-mode:lr-tb;text-anchor:start;fill:#1a1a1a;fill-opacity:1;stroke:none;font-family:Jura;-inkscape-font-specification:Jura Semi-Bold"
         id="path4190"
         inkscape:connector-curvature="0" />
    </g>
    <flowRoot
       xml:space="preserve"
       id="flowRoot4298"
       style="font-size:2px;font-style:normal;font-variant:normal;font-weight:500;font-stretch:normal;text-align:start;line-height:125%;letter-spacing:0px;word-spacing:0px;writing-mode:lr-tb;text-anchor:start;fill:#999999;fill-opacity:1;stroke:none;font-family:News Cycle;-inkscape-font-specification:News Cycle Medium"
       transform="matrix(0.60547179,0,0,0.60547179,19.715516,183.37398)"><flowRegion
         id="flowRegion4300"><rect
           id="rect4302"
           width="88.745514"
           height="32.676292"
           x="52.514297"
           y="472.26044"
           style="font-size:2px;font-weight:500;fill:#999999;-inkscape-font-specification:News Cycle Medium" /></flowRegion><flowPara
         id="flowPara4304"
         style="font-style:normal;font-variant:normal;font-weight:normal;font-stretch:normal;fill:#999999;font-family:FreeMono;-inkscape-font-specification:FreeMono">from datetime import datetime</flowPara><flowPara
         id="flowPara4326"
         style="font-style:normal;font-variant:normal;font-weight:normal;font-stretch:normal;fill:#999999;font-family:FreeMono;-inkscape-font-specification:FreeMono" /><flowPara
         id="flowPara4328"
         style="font-style:normal;font-variant:normal;font-weight:normal;font-stretch:normal;fill:#999999;font-family:FreeMono;-inkscape-font-specification:FreeMono">def topahack(dashes):    </flowPara><flowPara
         id="flowPara4330"
         style="font-style:normal;font-variant:normal;font-weight:normal;font-stretch:normal;fill:#999999;font-family:FreeMono;-inkscape-font-specification:FreeMono">    binary = ''.join([ '1' if char == '-' else '0' for char in dashes ]) </flowPara><flowPara
         id="flowPara4332"
         style="font-style:normal;font-variant:normal;font-weight:normal;font-stretch:normal;fill:#999999;font-family:FreeMono;-inkscape-font-specification:FreeMono">    time = int(binary, 2)    </flowPara><flowPara
         id="flowPara4334"
         style="font-style:normal;font-variant:normal;font-weight:normal;font-stretch:normal;fill:#999999;font-family:FreeMono;-inkscape-font-specification:FreeMono">    time = datetime.fromtimestamp(time)    </flowPara><flowPara
         id="flowPara4336"
         style="font-style:normal;font-variant:normal;font-weight:normal;font-stretch:normal;fill:#999999;font-family:FreeMono;-inkscape-font-specification:FreeMono">    return time.isoformat()</flowPara><flowPara
         id="flowPara4338"
         style="font-style:normal;font-variant:normal;font-weight:normal;font-stretch:normal;fill:#999999;font-family:FreeMono;-inkscape-font-specification:FreeMono" /><flowPara
         id="flowPara4340"
         style="font-style:normal;font-variant:normal;font-weight:normal;font-stretch:normal;fill:#999999;font-family:FreeMono;-inkscape-font-specification:FreeMono">topahack('- -   ---- -  -  - - -  -  -- -')  </flowPara><flowPara
         id="flowPara4306"
         style="font-style:normal;font-variant:normal;font-weight:normal;font-stretch:normal;fill:#999999;font-family:FreeMono;-inkscape-font-specification:FreeMono" /><flowPara
         id="flowPara4308"
         style="font-style:normal;font-variant:normal;font-weight:normal;font-stretch:normal;fill:#999999;font-family:FreeMono;-inkscape-font-specification:FreeMono" /><flowPara
         id="flowPara4310"
         style="font-style:normal;font-variant:normal;font-weight:normal;font-stretch:normal;fill:#999999;font-family:FreeMono;-inkscape-font-specification:FreeMono" /><flowPara
         id="flowPara4312"
         style="font-style:normal;font-variant:normal;font-weight:normal;font-stretch:normal;fill:#999999;font-family:FreeMono;-inkscape-font-specification:FreeMono" /><flowPara
         id="flowPara4314"
         style="font-style:normal;font-variant:normal;font-weight:normal;font-stretch:normal;fill:#999999;font-family:FreeMono;-inkscape-font-specification:FreeMono" /><flowPara
         id="flowPara4316"
         style="font-style:normal;font-variant:normal;font-weight:normal;font-stretch:normal;fill:#999999;font-family:FreeMono;-inkscape-font-specification:FreeMono" /><flowPara
         id="flowPara4318"
         style="font-style:normal;font-variant:normal;font-weight:normal;font-stretch:normal;fill:#999999;font-family:FreeMono;-inkscape-font-specification:FreeMono" /><flowPara
         id="flowPara4320"
         style="font-style:normal;font-variant:normal;font-weight:normal;font-stretch:normal;fill:#999999;font-family:FreeMono;-inkscape-font-specification:FreeMono" /><flowPara
         id="flowPara4322"
         style="font-style:normal;font-variant:normal;font-weight:normal;font-stretch:normal;fill:#999999;font-family:FreeMono;-inkscape-font-specification:FreeMono" /><flowPara
         id="flowPara4324"
         style="font-style:normal;font-variant:normal;font-weight:normal;font-stretch:normal;fill:#999999;font-family:FreeMono;-inkscape-font-specification:FreeMono" /></flowRoot>  </g>
</svg>
